<?xml version="1.0" encoding="UTF-8" standalone="no"?>
<!DOCTYPE svg PUBLIC "-//W3C//DTD SVG 1.1//EN" "http://www.w3.org/Graphics/SVG/1.1/DTD/svg11.dtd">
<svg width="100%" height="100%" viewBox="0 0 365 117" version="1.1" xmlns="http://www.w3.org/2000/svg" xmlns:xlink="http://www.w3.org/1999/xlink" xml:space="preserve" xmlns:serif="http://www.serif.com/" style="fill-rule:evenodd;clip-rule:evenodd;stroke-linejoin:round;stroke-miterlimit:2;">
    <g transform="matrix(1,0,0,1,-552,-132)">
        <g transform="matrix(0.554864,0,0,0.212513,538.383,119.993)">
            <g transform="matrix(1,0,0,2.61097,0,-305.243)">
                <path d="M260.03,345.859C254.793,345.859 249.427,344.919 243.932,343.038C238.437,341.157 233.44,338.391 228.941,334.74C224.442,331.089 220.754,326.553 217.877,321.132C215.001,315.711 213.562,309.496 213.562,302.489C213.562,295.777 214.706,289.637 216.992,284.068C219.279,278.499 222.45,273.724 226.507,269.741C230.564,265.758 235.395,262.678 241,260.502C246.606,258.326 252.691,257.239 259.256,257.239C264.493,257.239 269.877,258.179 275.409,260.06C280.941,261.941 285.975,264.707 290.511,268.358C295.047,272.009 298.772,276.545 301.685,281.966C304.599,287.387 306.055,293.638 306.055,300.719C306.055,307.505 304.709,313.682 302.017,319.251C299.325,324.82 295.821,329.577 291.507,333.523C287.192,337.469 282.268,340.512 276.736,342.651C271.205,344.79 265.636,345.859 260.03,345.859ZM268.992,301.272C268.992,299.576 268.752,297.658 268.273,295.519C267.793,293.38 267.129,291.389 266.281,289.545C265.433,287.701 264.419,286.152 263.239,284.898C262.059,283.644 260.768,283.017 259.366,283.017C257.891,283.017 256.619,283.718 255.549,285.119C254.48,286.521 253.595,288.217 252.894,290.209C252.193,292.2 251.677,294.265 251.345,296.404C251.013,298.543 250.847,300.314 250.847,301.715C250.847,303.411 251.069,305.329 251.511,307.468C251.954,309.607 252.581,311.599 253.392,313.443C254.203,315.286 255.181,316.835 256.324,318.089C257.467,319.343 258.776,319.97 260.251,319.97C261.8,319.97 263.128,319.251 264.234,317.813C265.341,316.374 266.244,314.66 266.945,312.668C267.646,310.677 268.162,308.611 268.494,306.472C268.826,304.333 268.992,302.6 268.992,301.272Z" style="fill-rule:nonzero;"/>
            </g>
            <g transform="matrix(1,0,0,2.61097,0,-305.243)">
                <path d="M165.324,345.859C160.087,345.859 154.721,344.919 149.226,343.038C143.731,341.157 138.734,338.391 134.235,334.74C129.736,331.089 126.048,326.553 123.171,321.132C120.295,315.711 118.856,309.496 118.856,302.489C118.856,295.777 120,289.637 122.286,284.068C124.573,278.499 127.744,273.724 131.801,269.741C135.858,265.758 140.689,262.678 146.295,260.502C151.9,258.326 157.985,257.239 164.55,257.239C169.787,257.239 175.171,258.179 180.703,260.06C186.235,261.941 191.269,264.707 195.805,268.358C200.341,272.009 204.066,276.545 206.979,281.966C209.893,287.387 211.35,293.638 211.35,300.719C211.35,307.505 210.003,313.682 207.311,319.251C204.619,324.82 201.116,329.577 196.801,333.523C192.486,337.469 187.562,340.512 182.031,342.651C176.499,344.79 170.93,345.859 165.324,345.859ZM174.286,301.272C174.286,299.576 174.046,297.658 173.567,295.519C173.087,293.38 172.423,291.389 171.575,289.545C170.727,287.701 169.713,286.152 168.533,284.898C167.353,283.644 166.062,283.017 164.66,283.017C163.185,283.017 161.913,283.718 160.843,285.119C159.774,286.521 158.889,288.217 158.188,290.209C157.487,292.2 156.971,294.265 156.639,296.404C156.307,298.543 156.141,300.314 156.141,301.715C156.141,303.411 156.363,305.329 156.805,307.468C157.248,309.607 157.875,311.599 158.686,313.443C159.497,315.286 160.475,316.835 161.618,318.089C162.761,319.343 164.07,319.97 165.546,319.97C167.094,319.97 168.422,319.251 169.528,317.813C170.635,316.374 171.538,314.66 172.239,312.668C172.94,310.677 173.456,308.611 173.788,306.472C174.12,304.333 174.286,302.6 174.286,301.272Z" style="fill-rule:nonzero;"/>
            </g>
            <g transform="matrix(1,0,0,2.61097,0,-305.243)">
                <path d="M466.629,188.919C466.986,187.306 467.192,185.652 467.153,183.997C467.118,182.508 466.947,181.021 466.61,179.569C466.285,178.165 465.851,176.787 465.311,175.451C464.782,174.144 464.228,172.847 463.646,171.563C462.942,169.989 462.289,168.388 461.755,166.747C461.25,165.196 461.245,163.534 461.566,161.945C461.964,159.968 462.978,158.188 464.624,156.994C466.288,155.786 468.21,154.98 470.216,154.545C472.371,154.079 474.587,153.918 476.788,154.027C478.822,154.128 480.86,154.358 482.845,154.827C484.829,155.297 486.757,155.988 488.631,156.786C490.729,157.68 492.736,158.784 494.62,160.07C496.475,161.335 498.178,162.822 499.657,164.512C501.01,166.058 502.044,167.879 502.527,169.884C503.969,168.427 505.776,167.394 507.718,166.76C509.828,166.071 512.028,165.671 514.244,165.541C516.511,165.407 518.791,165.501 521.041,165.821C523.067,166.11 525.084,166.52 527.034,167.147C528.954,167.765 530.8,168.605 532.587,169.537C534.575,170.575 536.437,171.852 538.108,173.349C539.67,174.749 540.972,176.439 541.821,178.363C542.658,180.262 542.606,182.351 541.91,184.284C541.357,185.82 540.428,187.192 539.205,188.274C537.681,189.622 536.013,190.806 534.328,191.942C533.311,192.639 532.305,193.37 531.324,194.117C530.241,194.94 529.224,195.847 528.265,196.811C527.222,197.859 526.308,199.031 525.511,200.276C524.619,201.67 523.938,203.192 523.408,204.757C522.905,206.242 522.524,207.786 522.428,209.355C522.351,210.632 522.375,211.92 522.56,213.188C522.721,214.297 522.973,215.396 523.343,216.455C523.672,217.398 524.042,218.328 524.468,219.231C525.12,220.873 525.682,222.554 526.095,224.272C526.505,225.979 526.259,227.756 525.671,229.39C525.003,231.245 523.866,232.934 522.165,233.98C520.581,234.954 518.802,235.569 516.961,235.818C515.058,236.076 513.123,236.063 511.221,235.799C509.522,235.564 507.822,235.241 506.187,234.712C504.459,234.152 502.798,233.393 501.188,232.554C499.346,231.593 497.6,230.452 495.964,229.17C494.299,227.865 492.784,226.371 491.46,224.721C490.191,223.141 489.23,221.322 488.729,219.355C487.282,220.778 485.52,221.837 483.618,222.533C481.633,223.26 479.567,223.755 477.47,224.011C475.414,224.263 473.336,224.338 471.269,224.208C469.466,224.095 467.66,223.887 465.9,223.473C464.21,223.075 462.571,222.473 460.979,221.786C459.235,221.032 457.6,220.035 456.149,218.807C454.742,217.616 453.574,216.16 452.737,214.516C451.846,212.764 451.731,210.766 452.115,208.86C452.488,207.007 453.337,205.278 454.681,203.936C456.059,202.558 457.513,201.258 459.022,200.027C460.661,198.688 462.166,197.188 463.544,195.583C465.161,193.698 466.098,191.322 466.629,188.919ZM490.14,204.262C490.374,204.753 490.791,205.757 490.964,206.174C491.286,206.954 491.578,207.761 491.73,208.593C492.909,207.458 494.268,206.507 495.639,205.624C496.129,205.337 496.67,205.002 497.131,204.663C497.349,204.504 497.714,204.27 497.795,203.987C497.873,203.719 497.661,203.484 497.468,203.329C497.138,203.064 496.765,202.855 496.386,202.672C495.933,202.455 495.473,202.253 495.007,202.065C494.617,201.908 494.174,201.745 493.766,201.631C493.358,201.517 492.895,201.428 492.48,201.36C491.998,201.281 491.508,201.23 491.02,201.218C490.617,201.207 490.189,201.218 489.788,201.271C489.543,201.304 489.24,201.395 489.167,201.664C489.088,201.958 489.275,202.365 489.373,202.627C489.585,203.191 489.853,203.733 490.14,204.262ZM501.426,188.027C501.601,187.417 501.623,186.774 501.527,186.149C501.418,185.435 501.236,184.734 501.006,184.05C500.764,183.326 500.512,182.605 500.252,181.888C500.012,181.227 499.832,180.542 499.749,179.842C499.25,180.457 498.699,181.027 498.104,181.549C497.536,182.046 496.97,182.557 496.42,183.074C495.83,183.604 495.211,184.184 494.654,184.752C494.346,185.067 493.931,185.461 493.811,185.905C493.637,186.546 494.554,187.003 494.993,187.221C495.773,187.609 496.579,187.96 497.42,188.195C498.247,188.425 499.099,188.564 499.956,188.605C500.445,188.629 501.257,188.619 501.426,188.027Z"/>
                <path d="M201.22,207.766C201.912,207.566 202.559,207.181 202.922,206.54C203.296,205.876 203.541,205.145 203.718,204.407C203.926,203.536 204.117,202.655 204.291,201.777C204.482,200.813 204.843,199.887 205.313,199.026C205.855,198.031 206.652,197.197 207.548,196.511C208.775,195.573 210.291,195.04 211.769,194.653C214.046,194.056 216.42,193.897 218.763,194.072C221.198,194.253 223.598,194.826 225.844,195.788C228.026,196.723 230.012,198.079 231.656,199.793C233.314,201.522 234.402,203.694 234.922,206.024C235.441,208.356 235.364,210.784 234.615,213.057C233.841,215.406 232.489,217.518 230.819,219.329C228.887,221.424 226.552,223.114 224.072,224.501C221.186,226.116 218.074,227.298 214.889,228.17C211.904,228.986 208.845,229.519 205.765,229.802C202.579,230.096 199.368,230.1 196.179,229.832C192.965,229.561 189.78,228.956 186.691,228.025C183.623,227.101 180.68,225.775 177.966,224.069C175.203,222.332 172.73,220.161 170.61,217.683C168.291,214.972 166.574,211.794 165.368,208.445C163.883,204.319 163.187,199.94 163.278,195.557C163.368,191.158 164.181,186.782 165.778,182.678C167.342,178.656 169.675,174.961 172.646,171.83C175.598,168.718 179.314,166.434 183.422,165.204C185.193,164.674 187.044,164.296 188.901,164.331C190.38,164.36 191.86,164.449 193.329,164.629C194.629,164.789 195.929,164.948 197.23,165.103C198.51,165.256 199.808,165.135 201.052,164.802C202.216,164.491 203.349,163.996 204.279,163.217C205.135,162.5 205.979,161.765 206.807,161.015C207.681,160.224 208.597,159.481 209.542,158.777C210.646,157.956 211.956,157.45 213.286,157.128C215.056,156.7 216.921,156.599 218.699,157.044C220.275,157.439 221.785,158.092 223.117,159.027C224.37,159.907 225.461,161.009 226.304,162.289C227.064,163.441 227.668,164.71 227.964,166.064C228.332,167.738 228.279,169.497 228.125,171.193C227.937,173.268 227.464,175.312 226.747,177.268C226.023,179.242 224.958,181.08 223.612,182.695C222.274,184.301 220.473,185.408 218.445,185.906C216.484,186.387 214.439,186.325 212.502,185.763C210.538,185.194 208.607,184.507 206.73,183.695C204.989,182.943 203.219,182.217 201.447,181.54C200.057,181.009 198.5,180.712 197.038,181.125C195.789,181.479 194.797,182.337 194.128,183.433C193.357,184.694 192.85,186.1 192.547,187.543C192.215,189.125 192.087,190.746 192.132,192.362C192.174,193.851 192.35,195.35 192.779,196.781C193.141,197.99 193.568,199.279 193.978,200.468C194.441,201.81 195.027,203.111 195.75,204.333C196.385,205.408 197.172,206.405 198.15,207.187C199.036,207.896 200.136,208.08 201.22,207.766Z"/>
                <path d="M199.99,209.948C197.889,210.564 195.567,210.751 193.535,209.792C191.788,208.967 190.22,207.792 188.966,206.317C187.752,204.889 186.735,203.294 185.996,201.57C185.448,200.293 184.897,199.004 184.478,197.678C183.706,195.236 183.237,192.696 183.174,190.134C183.117,187.82 183.361,185.488 184.043,183.271C184.646,181.312 185.611,179.463 186.984,177.933C188.256,176.514 189.882,175.461 191.716,174.93C193.653,174.37 195.702,174.365 197.647,174.892C199.636,175.432 201.591,176.096 203.498,176.879C205.299,177.618 207.11,178.337 208.933,179.021C210.444,179.587 212.097,179.841 213.682,179.443C215.003,179.111 216.114,178.306 216.885,177.189C217.707,175.999 218.31,174.669 218.696,173.277C219.086,171.87 219.321,170.42 219.372,168.96C219.413,167.783 219.396,166.574 219.125,165.421C218.923,164.562 218.547,163.753 218.067,163.015C217.554,162.227 216.92,161.523 216.189,160.932C215.428,160.316 214.534,159.886 213.592,159.627C212.549,159.341 211.449,159.377 210.405,159.637C209.334,159.902 208.322,160.387 207.479,161.102C206.648,161.806 205.836,162.531 205.043,163.277C204.198,164.071 203.309,164.816 202.391,165.524C201.336,166.339 200.089,166.872 198.809,167.221C197.481,167.583 196.094,167.748 194.72,167.616C193.379,167.487 192.026,167.347 190.687,167.201C189.234,167.042 187.774,166.95 186.314,166.911C184.621,166.865 182.933,167.177 181.319,167.668C177.731,168.761 174.549,170.865 172.144,173.745C169.692,176.681 167.837,180.078 166.635,183.707C165.408,187.409 164.801,191.298 164.796,195.197C164.791,198.828 165.293,202.481 166.514,205.91C167.976,210.017 170.464,213.701 173.925,216.382C177.247,218.955 181.056,220.844 185.104,221.964C189.245,223.109 193.542,223.624 197.836,223.56C202.002,223.499 206.17,222.981 210.188,221.858C212.75,221.141 215.252,220.184 217.585,218.9C219.578,217.802 221.474,216.49 223.075,214.865C224.43,213.489 225.553,211.873 226.226,210.055C226.85,208.366 226.97,206.542 226.552,204.789C226.133,203.032 225.223,201.438 223.856,200.249C222.521,199.087 220.98,198.175 219.311,197.587C217.668,197.008 215.944,196.672 214.204,196.603C212.749,196.546 211.255,196.596 209.84,196.974C208.868,197.234 207.845,197.644 207.174,198.428C206.621,199.073 206.227,199.837 205.998,200.653C205.757,201.511 205.579,202.386 205.458,203.269C205.334,204.173 205.111,205.063 204.799,205.921C204.477,206.807 203.943,207.6 203.273,208.26C202.39,209.131 201.159,209.606 199.99,209.948Z" style="fill:rgb(255,0,0);"/>
                <path d="M250.102,174.291C249.897,173.164 249.364,172.13 248.564,171.31C247.726,170.451 246.857,169.623 245.961,168.825C245.021,167.987 244.135,167.09 243.299,166.148C242.387,165.119 241.842,163.828 241.582,162.488C241.209,160.558 241.301,158.552 242.029,156.714C242.743,154.912 243.859,153.298 245.252,151.955C246.778,150.482 248.53,149.256 250.391,148.244C252.363,147.172 254.416,146.248 256.527,145.484C258.529,144.759 260.568,144.133 262.64,143.644C264.347,143.24 266.069,142.883 267.806,142.637C269.559,142.389 271.328,142.255 273.096,142.167C275.22,142.061 277.351,142.095 279.474,142.243C281.709,142.398 283.932,142.722 286.122,143.196C288.203,143.647 290.24,144.335 292.123,145.335C293.829,146.241 295.345,147.484 296.525,149.016C297.731,150.582 298.373,152.484 298.548,154.441C298.678,155.878 298.534,157.356 297.939,158.682C297.414,159.851 296.819,160.989 296.138,162.075C295.514,163.069 294.906,164.079 294.325,165.099C293.797,166.024 293.543,167.078 293.65,168.141C293.819,169.809 294.487,171.376 295.451,172.738C296.557,174.301 297.838,175.736 299.212,177.069C300.731,178.543 302.315,179.948 303.947,181.296C305.588,182.652 307.152,184.102 308.617,185.647C309.995,187.102 311.217,188.706 312.221,190.441C313.168,192.08 313.741,193.912 313.869,195.802C313.992,197.621 313.666,199.445 312.881,201.093C312.073,202.787 310.947,204.313 309.623,205.639C308.196,207.068 306.601,208.324 304.902,209.414C303.16,210.532 301.333,211.517 299.438,212.349C297.647,213.136 295.808,213.818 293.924,214.347C292.352,214.789 290.753,215.164 289.131,215.358C287.887,215.506 286.63,215.521 285.38,215.441C284.08,215.358 282.795,215.074 281.584,214.591C280.341,214.095 279.222,213.33 278.268,212.395C277.164,211.312 276.471,209.888 276.055,208.414C276.005,209.863 275.716,211.328 275.013,212.609C274.42,213.754 273.599,214.778 272.558,215.547C271.563,216.282 270.463,216.868 269.296,217.279C268.234,217.652 267.146,217.963 266.035,218.147C263.572,218.556 261.045,218.538 258.56,218.387C255.656,218.211 252.776,217.686 249.996,216.827C247.302,215.994 244.742,214.739 242.486,213.043C240.35,211.437 238.854,209.184 238.287,206.565C237.85,204.545 237.811,202.445 238.279,200.427C238.745,198.413 239.464,196.462 240.388,194.614C241.349,192.696 242.453,190.85 243.685,189.094C244.873,187.399 246.026,185.677 247.123,183.921C248.098,182.363 248.954,180.724 249.604,179.002C250.17,177.502 250.391,175.878 250.102,174.291ZM268.57,196.125C268.661,196.712 269.133,197.198 269.553,197.577C270.212,198.171 270.936,198.8 271.607,199.375C272.418,200.07 273.164,200.839 273.849,201.657C274.565,202.51 275.119,203.489 275.499,204.535C275.493,204.078 275.532,203.621 275.612,203.171C275.703,202.652 275.845,202.141 276.011,201.641C276.224,200.998 276.524,200.385 276.857,199.796C277.304,199.005 277.8,198.241 278.313,197.492C278.606,197.074 278.91,196.608 279.156,196.158C279.391,195.726 279.432,195.223 279.367,194.742C279.21,193.56 278.346,192.69 277.357,192.11C276.14,191.397 274.73,191.168 273.341,191.368C271.993,191.562 270.74,192.152 269.772,193.116C268.97,193.915 268.391,194.963 268.57,196.125ZM271.359,177.586C272.287,177.453 273.025,176.956 272.882,175.938C272.844,175.666 272.751,175.34 272.669,175.084C272.559,174.736 272.402,174.404 272.205,174.097C272.018,173.806 271.796,173.536 271.535,173.308C271.332,173.13 271.075,172.994 270.797,173.034C270.153,173.127 269.879,173.865 269.739,174.409C269.574,175.051 269.425,175.755 269.522,176.421C269.584,176.843 269.76,177.292 270.184,177.462C270.557,177.611 270.963,177.643 271.359,177.586Z"/>
                <path d="M251.492,170.991C251.245,169.606 250.762,168.204 249.804,167.143C249.004,166.259 248.139,165.433 247.204,164.693C246.311,163.987 245.448,163.242 244.622,162.46C243.724,161.609 243.225,160.444 242.998,159.245C242.594,157.119 243.189,155.062 244.647,153.465C246.293,151.662 248.328,150.253 250.5,149.156C252.917,147.935 255.465,146.982 258.083,146.29C260.29,145.706 262.523,145.174 264.784,144.842C266.226,144.63 267.679,144.493 269.132,144.388C270.87,144.261 272.615,144.243 274.356,144.314C276.16,144.388 277.959,144.569 279.741,144.856C281.409,145.124 283.055,145.557 284.612,146.217C285.951,146.784 287.206,147.573 288.213,148.631C289.181,149.648 289.711,150.969 289.856,152.355C289.983,153.569 289.842,154.828 289.229,155.901C288.665,156.888 288.055,157.849 287.405,158.782C286.724,159.76 286.135,160.8 285.625,161.877C285.014,163.168 284.956,164.65 285.118,166.047C285.342,167.976 286.031,169.819 287.089,171.444C288.217,173.177 289.54,174.78 290.986,176.256C292.534,177.837 294.156,179.344 295.835,180.784C297.459,182.179 299.047,183.616 300.584,185.106C301.931,186.413 303.173,187.835 304.228,189.389C305.106,190.681 305.748,192.157 305.878,193.726C306.048,195.783 305.26,197.704 303.93,199.247C302.402,201.019 300.549,202.488 298.542,203.682C296.399,204.959 294.117,205.996 291.752,206.787C289.753,207.455 287.7,208.051 285.604,208.313C284.716,208.423 283.818,208.446 282.925,208.401C282.034,208.356 281.15,208.17 280.327,207.82C279.525,207.478 278.816,206.952 278.244,206.295C277.561,205.512 277.246,204.477 277.105,203.466C276.949,202.35 276.981,201.162 277.479,200.131C277.911,199.235 278.399,198.367 278.94,197.533C279.471,196.717 279.969,195.879 280.43,195.022C280.948,194.057 281.004,192.92 280.866,191.854C280.711,190.659 280.27,189.519 279.578,188.532C278.873,187.53 277.97,186.68 276.935,186.025C275.832,185.328 274.598,184.861 273.324,184.591C271.983,184.306 270.598,184.267 269.243,184.47C267.916,184.668 266.628,185.098 265.464,185.766C264.352,186.405 263.333,187.202 262.466,188.147C261.644,189.041 261.002,190.091 260.611,191.243C260.229,192.373 260.144,193.58 260.344,194.755C260.53,195.852 260.943,196.963 261.79,197.724C262.534,198.393 263.312,199.025 264.118,199.62C264.931,200.219 265.706,200.87 266.437,201.567C267.287,202.377 267.682,203.541 267.861,204.675C268.013,205.634 268.03,206.662 267.662,207.577C267.359,208.33 266.888,209.006 266.268,209.533C265.633,210.072 264.891,210.469 264.104,210.735C263.31,211.003 262.498,211.218 261.672,211.36C259.697,211.701 257.672,211.731 255.674,211.668C253.35,211.595 251.035,211.273 248.784,210.692C246.67,210.147 244.625,209.312 242.79,208.123C241.152,207.062 239.948,205.493 239.538,203.568C239.213,202.038 239.404,200.454 239.883,198.978C240.464,197.19 241.25,195.472 242.153,193.825C243.189,191.936 244.298,190.088 245.463,188.276C246.666,186.403 247.787,184.478 248.807,182.5C249.767,180.641 250.57,178.698 251.148,176.686C251.679,174.838 251.83,172.889 251.492,170.991ZM271.359,177.586C272.287,177.453 273.025,176.956 272.882,175.938C272.844,175.666 272.751,175.34 272.669,175.084C272.559,174.736 272.402,174.404 272.205,174.097C272.018,173.806 271.796,173.536 271.535,173.308C271.332,173.13 271.075,172.994 270.797,173.034C270.153,173.127 269.879,173.865 269.739,174.409C269.574,175.051 269.425,175.755 269.522,176.421C269.584,176.843 269.76,177.292 270.184,177.462C270.557,177.611 270.963,177.643 271.359,177.586Z" style="fill:rgb(0,209,0);"/>
                <path d="M315.257,170.062C312.567,170.229 309.679,169.869 307.513,168.13C305.319,166.369 304.503,163.513 304.286,160.814C304.061,158.026 304.403,155.147 305.77,152.668C307.039,150.368 308.847,148.412 310.992,146.902C313.338,145.25 315.968,144.034 318.703,143.182C321.561,142.291 324.481,141.595 327.437,141.116C330.21,140.667 333.008,140.358 335.815,140.235C337.977,140.139 340.349,140.059 342.527,140.034C345.248,140.002 347.97,140.039 350.69,140.121C353.725,140.213 356.753,140.485 359.757,140.923C362.759,141.361 365.726,142.031 368.619,142.945C371.281,143.786 373.852,144.956 376.154,146.544C378.233,147.977 379.986,149.85 381.209,152.064C382.516,154.429 382.898,157.166 382.739,159.836C382.573,162.602 381.829,165.616 379.56,167.42C377.418,169.124 374.624,169.586 371.954,169.476C370.242,169.405 368.381,169.175 366.896,168.248C365.847,167.592 364.848,166.832 364.015,165.911C363.31,165.132 362.585,164.358 361.85,163.606C361.068,162.806 359.944,162.523 358.856,162.504C357.846,162.487 357.031,163.09 356.469,163.886C355.723,164.943 355.241,166.169 354.905,167.412C354.499,168.91 354.239,170.446 354.082,171.99C353.929,173.499 353.829,175.014 353.816,176.532C353.801,178.303 353.901,180.111 354.355,181.831C354.696,183.125 355.166,184.394 355.833,185.557C356.404,186.553 357.035,187.517 357.746,188.419C358.421,189.275 359.053,190.164 359.643,191.08C360.257,192.033 360.73,193.073 361.072,194.153C361.497,195.496 361.576,196.936 361.543,198.334C361.491,200.552 360.971,202.831 359.55,204.587C358.311,206.117 356.743,207.351 354.959,208.185C353.163,209.025 351.249,209.602 349.29,209.904C347.549,210.173 345.79,210.372 344.027,210.39C342.266,210.408 340.504,210.263 338.757,210.055C336.786,209.82 334.858,209.279 333.053,208.453C331.247,207.626 329.642,206.414 328.344,204.911C326.862,203.195 326.276,200.927 326.177,198.703C326.113,197.252 326.152,195.74 326.598,194.345C326.928,193.314 327.368,192.31 327.971,191.408C328.528,190.575 329.149,189.784 329.824,189.042C330.561,188.233 331.169,187.314 331.683,186.35C332.314,185.168 332.75,183.888 333.083,182.593C333.556,180.75 333.6,178.8 333.545,176.908C333.5,175.378 333.367,173.85 333.184,172.331C332.996,170.777 332.706,169.232 332.265,167.729C331.9,166.481 331.388,165.257 330.627,164.195C330.033,163.365 329.167,162.785 328.118,162.825C327.03,162.866 325.913,163.172 325.147,163.989C324.428,164.756 323.719,165.545 323.03,166.339C322.225,167.267 321.262,168.05 320.243,168.732C318.802,169.698 316.949,169.957 315.257,170.062Z"/>
                <path d="M311.64,162.861C312.988,162.769 314.42,162.463 315.478,161.57C316.358,160.828 317.188,160.026 317.958,159.171C318.738,158.304 319.594,157.506 320.507,156.78C321.634,155.883 323.141,155.606 324.544,155.545C326.429,155.462 328.293,155.967 329.735,157.218C331.179,158.47 332.265,160.076 333.014,161.826C333.851,163.783 334.411,165.851 334.757,167.95C335.097,170.013 335.323,172.098 335.377,174.189C335.434,176.431 335.369,178.71 334.919,180.915C334.6,182.478 334.183,184.041 333.527,185.5C333.032,186.599 332.437,187.669 331.669,188.603C331.04,189.369 330.417,190.14 329.805,190.92C329.269,191.603 328.789,192.331 328.391,193.102C327.965,193.928 327.848,194.875 327.885,195.793C327.944,197.223 328.405,198.625 329.432,199.653C330.41,200.632 331.598,201.374 332.887,201.868C334.238,202.386 335.659,202.707 337.099,202.836C338.403,202.953 339.713,203.03 341.023,203.009C342.333,202.988 343.641,202.852 344.938,202.669C346.368,202.467 347.775,202.102 349.117,201.567C350.375,201.065 351.53,200.318 352.455,199.325C353.433,198.277 353.821,196.866 353.833,195.458C353.841,194.53 353.703,193.582 353.286,192.744C352.888,191.946 352.379,191.206 351.803,190.526C351.153,189.758 350.5,188.966 349.866,188.185C349.089,187.23 348.46,186.159 347.909,185.06C347.185,183.618 346.717,182.053 346.369,180.481C345.889,178.313 345.756,176.071 345.742,173.856C345.728,171.778 345.886,169.701 346.162,167.642C346.442,165.547 346.939,163.478 347.708,161.507C348.393,159.754 349.404,158.123 350.791,156.838C352.177,155.555 354.015,155.019 355.878,155.04C357.282,155.057 358.796,155.285 359.952,156.145C360.896,156.849 361.791,157.619 362.622,158.454C363.442,159.277 364.312,160.052 365.224,160.774C366.309,161.632 367.75,161.892 369.099,161.94C370.483,161.99 371.902,161.689 372.967,160.756C374.162,159.709 374.491,157.996 374.559,156.486C374.652,154.422 374.232,152.347 373.064,150.621C371.902,148.904 370.297,147.542 368.499,146.528C366.418,145.355 364.168,144.502 361.864,143.884C359.334,143.205 356.751,142.727 354.149,142.433C351.559,142.14 348.958,141.95 346.353,141.878C344.058,141.814 341.761,141.79 339.465,141.829C337.6,141.861 335.538,141.945 333.689,142.039C331.246,142.164 328.811,142.424 326.392,142.783C323.834,143.164 321.302,143.714 318.817,144.428C316.479,145.1 314.207,146.029 312.121,147.287C310.286,148.393 308.653,149.839 307.453,151.622C306.253,153.404 305.849,155.547 306.013,157.667C306.274,161.058 308.208,163.093 311.64,162.861Z" style="fill:rgb(255,240,63);"/>
                <path d="M414.887,190.823C415.597,190.911 416.338,190.811 416.919,190.364C417.521,189.901 418.031,189.325 418.482,188.717C419.013,187.998 419.533,187.263 420.036,186.524C420.588,185.714 421.28,185.005 422.048,184.397C422.932,183.697 423.987,183.243 425.075,182.965C426.563,182.585 428.158,182.691 429.661,182.917C431.978,183.264 434.212,184.052 436.285,185.134C438.445,186.26 440.417,187.731 442.095,189.498C443.728,191.217 445.015,193.245 445.848,195.466C446.689,197.709 446.832,200.133 446.391,202.479C445.95,204.827 444.924,207.028 443.342,208.824C441.709,210.676 439.639,212.086 437.394,213.094C434.803,214.258 432,214.894 429.184,215.195C425.913,215.543 422.605,215.407 419.351,214.955C416.309,214.532 413.31,213.819 410.39,212.867C407.373,211.884 404.448,210.625 401.653,209.124C398.835,207.61 396.178,205.799 393.739,203.729C391.312,201.669 389.161,199.29 387.37,196.657C385.54,193.968 384.149,190.998 383.197,187.89C382.154,184.481 381.841,180.885 382.055,177.335C382.32,172.961 383.397,168.663 385.19,164.667C386.986,160.666 389.427,156.964 392.484,153.814C395.469,150.739 399.029,148.258 402.958,146.547C406.856,144.849 411.131,144.211 415.354,144.696C417.175,144.906 419.011,145.286 420.687,146.049C422.025,146.657 423.34,147.321 424.608,148.064C425.732,148.723 426.856,149.38 427.982,150.034C429.09,150.678 430.324,151.077 431.59,151.261C432.776,151.432 434.007,151.422 435.161,151.073C436.226,150.75 437.286,150.406 438.338,150.043C439.448,149.66 440.578,149.336 441.719,149.062C443.053,148.741 444.452,148.791 445.795,149.018C447.586,149.321 449.335,149.963 450.788,151.071C452.078,152.055 453.206,153.25 454.059,154.633C454.863,155.936 455.429,157.378 455.699,158.886C455.942,160.244 455.997,161.648 455.737,163.009C455.415,164.693 454.674,166.289 453.865,167.788C452.876,169.621 451.638,171.313 450.21,172.829C448.769,174.358 447.07,175.628 445.2,176.584C443.344,177.532 441.259,177.843 439.204,177.502C437.22,177.173 435.373,176.311 433.823,175.033C432.25,173.737 430.755,172.346 429.359,170.862C428.065,169.486 426.733,168.122 425.382,166.803C424.323,165.77 423.019,164.883 421.521,164.687C420.242,164.521 419.001,164.921 417.963,165.664C416.764,166.521 415.751,167.614 414.911,168.82C413.988,170.145 413.237,171.585 412.645,173.087C412.099,174.473 411.672,175.92 411.502,177.403C411.358,178.658 411.242,180.011 411.15,181.265C411.045,182.681 411.07,184.107 411.248,185.515C411.405,186.751 411.731,187.977 412.316,189.082C412.844,190.08 413.773,190.684 414.887,190.823Z"/>
                <path d="M412.911,192.345C410.752,192.084 408.564,191.34 407.094,189.662C405.824,188.213 404.86,186.515 404.298,184.671C403.753,182.879 403.452,181.012 403.455,179.138C403.457,177.748 403.46,176.347 403.598,174.962C403.852,172.416 404.419,169.896 405.365,167.515C406.218,165.368 407.352,163.32 408.843,161.548C410.156,159.988 411.758,158.667 413.61,157.798C415.322,156.995 417.217,156.666 419.097,156.899C421.086,157.146 422.956,157.949 424.522,159.197C426.126,160.476 427.65,161.856 429.083,163.324C430.438,164.713 431.81,166.086 433.209,167.431C434.366,168.546 435.779,169.429 437.386,169.687C438.726,169.902 440.06,169.598 441.204,168.875C442.424,168.104 443.499,167.119 444.4,165.992C445.311,164.852 446.096,163.611 446.717,162.29C447.218,161.224 447.678,160.105 447.883,158.939C448.036,158.07 448.009,157.178 447.86,156.311C447.7,155.386 447.396,154.489 446.959,153.658C446.504,152.793 445.854,152.045 445.093,151.436C444.251,150.763 443.23,150.364 442.172,150.191C441.087,150.014 439.971,150.062 438.918,150.387C437.882,150.707 436.855,151.055 435.836,151.428C434.753,151.825 433.647,152.161 432.531,152.451C431.247,152.784 429.899,152.785 428.592,152.602C427.238,152.413 425.907,152.019 424.705,151.357C423.533,150.711 422.354,150.05 421.19,149.389C419.929,148.672 418.635,148.013 417.319,147.402C415.796,146.695 414.137,146.317 412.474,146.134C408.779,145.727 405.061,146.411 401.754,148.11C398.373,149.847 395.363,152.241 392.86,155.097C390.297,158.022 388.23,161.358 386.706,164.934C385.284,168.273 384.314,171.826 384.082,175.456C383.804,179.8 384.613,184.165 386.708,188C388.71,191.665 391.423,194.905 394.668,197.533C397.978,200.214 401.683,202.379 405.615,204.01C409.434,205.594 413.435,206.757 417.538,207.304C420.159,207.653 422.82,207.757 425.454,207.494C427.708,207.269 429.958,206.808 432.059,205.944C433.842,205.212 435.504,204.168 436.834,202.762C438.071,201.454 438.898,199.825 439.204,198.05C439.511,196.271 439.304,194.448 438.52,192.816C437.755,191.224 436.703,189.779 435.405,188.58C434.131,187.403 432.686,186.415 431.12,185.668C429.813,185.043 428.428,184.501 426.987,184.292C425.997,184.148 424.901,184.124 423.981,184.58C423.223,184.955 422.563,185.503 422.034,186.162C421.478,186.857 420.972,187.591 420.515,188.355C420.047,189.137 419.495,189.867 418.874,190.534C418.234,191.221 417.436,191.74 416.565,192.084C415.419,192.536 414.11,192.489 412.911,192.345Z" style="fill:rgb(30,177,255);"/>
                <path d="M469.119,186.57C468.479,189.414 467.483,192.308 465.686,194.645C464.317,196.426 462.791,198.104 461.042,199.52C459.675,200.625 458.172,201.833 456.783,202.922C455.62,203.833 454.763,205.071 454.464,206.529C454.224,207.698 454.384,208.898 455.014,209.92C455.663,210.973 456.558,211.851 457.575,212.547C458.692,213.313 459.902,213.939 461.162,214.437C462.349,214.907 463.565,215.316 464.811,215.602C466.585,216.009 468.41,216.185 470.225,216.274C472.271,216.374 474.327,216.24 476.338,215.848C478.222,215.481 480.051,214.824 481.694,213.825C483.25,212.878 484.338,211.403 484.806,209.645C485.12,208.465 485.181,207.215 484.843,206.032C484.524,204.916 484.113,203.827 483.614,202.78C483.143,201.792 482.7,200.79 482.3,199.771C481.938,198.848 481.86,197.845 482.105,196.882C482.348,195.926 482.938,195.127 483.766,194.596C484.645,194.031 485.631,193.651 486.654,193.448C487.73,193.235 488.832,193.168 489.927,193.235C490.877,193.294 491.835,193.403 492.756,193.654C493.647,193.897 494.498,194.289 495.318,194.706C496.305,195.209 497.237,195.818 498.088,196.525C498.905,197.204 499.597,198.029 500.096,198.967C500.563,199.844 500.691,200.837 500.412,201.794C500.127,202.768 499.518,203.595 498.718,204.21C497.826,204.896 496.902,205.538 495.957,206.148C494.957,206.793 494.017,207.53 493.146,208.341C492.232,209.192 491.623,210.304 491.288,211.5C490.798,213.252 490.987,215.076 491.848,216.681C492.761,218.383 494.031,219.869 495.498,221.119C497.057,222.448 498.765,223.599 500.577,224.555C502.18,225.401 503.836,226.172 505.566,226.721C506.764,227.101 508,227.355 509.24,227.551C510.586,227.764 511.955,227.842 513.316,227.753C514.564,227.671 515.798,227.373 516.92,226.812C518.003,226.269 518.777,225.328 519.168,224.188C519.482,223.271 519.552,222.289 519.345,221.341C519.119,220.3 518.79,219.283 518.404,218.291C517.947,217.121 517.467,215.939 516.981,214.781C516.423,213.45 516.022,212.055 515.738,210.64C515.41,209.001 515.314,207.32 515.357,205.65C515.411,203.584 515.866,201.54 516.497,199.579C517.443,196.638 518.813,193.768 520.885,191.447C522.593,189.533 524.445,187.735 526.488,186.18C528.186,184.887 529.909,183.627 531.673,182.425C533.004,181.518 534.22,180.318 534.753,178.763C535.174,177.537 535.052,176.248 534.41,175.122C533.696,173.868 532.674,172.815 531.525,171.952C530.229,170.978 528.831,170.146 527.37,169.446C526.061,168.82 524.721,168.243 523.336,167.806C521.497,167.226 519.591,166.867 517.682,166.62C515.59,166.349 513.469,166.302 511.37,166.517C509.464,166.712 507.581,167.208 505.878,168.099C504.307,168.922 503.204,170.313 502.726,172.018C502.385,173.236 502.351,174.518 502.616,175.754C502.886,177.013 503.206,178.26 503.575,179.493C503.922,180.653 504.26,181.825 504.58,182.992C504.848,183.972 504.92,185.018 504.633,186.003C504.362,186.935 503.763,187.707 502.927,188.199C502.039,188.722 501.06,189.075 500.053,189.283C498.99,189.503 497.899,189.572 496.816,189.498C495.872,189.433 494.922,189.319 494.007,189.069C493.123,188.828 492.278,188.445 491.461,188.036C490.501,187.554 489.592,186.971 488.764,186.287C487.976,185.635 487.312,184.84 486.834,183.935C486.377,183.068 486.251,182.087 486.493,181.136C486.748,180.138 487.325,179.256 488.032,178.518C488.866,177.647 489.724,176.788 490.591,175.95C491.504,175.066 492.382,174.145 493.221,173.191C494.033,172.267 494.64,171.175 494.956,169.984C495.409,168.274 495.166,166.515 494.232,165.009C493.21,163.361 491.826,161.965 490.277,160.807C488.564,159.527 486.69,158.469 484.723,157.633C482.944,156.878 481.113,156.215 479.228,155.78C477.789,155.449 476.319,155.256 474.849,155.13C473.269,154.996 471.672,155.033 470.106,155.289C468.733,155.514 467.381,155.933 466.173,156.632C465.069,157.271 464.351,158.323 464.096,159.566C463.768,161.166 464.171,162.81 464.828,164.273C465.691,166.192 466.546,168.158 467.369,170.094C468.362,172.432 469.041,174.896 469.514,177.389C470.09,180.427 469.793,183.575 469.119,186.57Z" style="fill:rgb(255,27,178);"/>
                <path d="M268.539,179.77C266.865,180.02 265.174,179.741 263.692,178.913C262.245,178.105 261.302,176.754 261.037,175.117C260.891,174.218 260.946,173.295 261.113,172.402C261.294,171.436 261.617,170.497 262.081,169.63C262.547,168.758 263.186,167.99 263.942,167.355C264.726,166.698 265.679,166.287 266.688,166.137C267.654,165.993 268.638,166.124 269.531,166.52C270.432,166.92 271.248,167.492 271.935,168.199C272.615,168.899 273.189,169.699 273.624,170.574C274.008,171.346 274.31,172.172 274.428,173.03C274.653,174.67 274.169,176.248 273.052,177.472C271.869,178.767 270.26,179.512 268.539,179.77ZM271.359,177.586C272.287,177.453 273.025,176.956 272.882,175.938C272.844,175.666 272.751,175.34 272.669,175.084C272.559,174.736 272.402,174.404 272.205,174.097C272.018,173.806 271.796,173.536 271.535,173.308C271.332,173.13 271.075,172.994 270.797,173.034C270.153,173.127 269.879,173.865 269.739,174.409C269.574,175.051 269.425,175.755 269.522,176.421C269.584,176.843 269.76,177.292 270.184,177.462C270.557,177.611 270.963,177.643 271.359,177.586Z"/>
            </g>
            <g transform="matrix(0.484505,0,0,1.26503,270.986,-151.292)">
                <g>
                    <g transform="matrix(2.06396,0,0,2.06396,-559.305,-121.698)">
                        <path d="M343.773,234.315C343.773,233.695 343.715,233.123 343.599,232.6C343.483,232.077 343.328,231.588 343.134,231.132C342.94,230.677 342.717,230.241 342.466,229.824C342.214,229.408 341.962,229.006 341.71,228.618C341.361,228.076 341.071,227.572 340.838,227.107C340.606,226.642 340.489,226.1 340.489,225.48C340.489,224.724 340.693,224.089 341.1,223.576C341.506,223.063 342.005,222.651 342.596,222.341C343.187,222.031 343.817,221.808 344.485,221.672C345.154,221.537 345.759,221.469 346.302,221.469C346.844,221.469 347.45,221.532 348.118,221.658C348.787,221.784 349.445,221.982 350.094,222.254C350.743,222.525 351.344,222.874 351.896,223.3C352.448,223.726 352.87,224.24 353.16,224.84C353.451,224.24 353.868,223.726 354.41,223.3C354.953,222.874 355.543,222.525 356.183,222.254C356.822,221.982 357.476,221.784 358.145,221.658C358.813,221.532 359.418,221.469 359.961,221.469C360.484,221.469 361.08,221.532 361.748,221.658C362.417,221.784 363.056,221.997 363.666,222.297C364.277,222.598 364.79,223.004 365.207,223.518C365.623,224.031 365.832,224.676 365.832,225.451C365.832,226.032 365.71,226.574 365.468,227.078C365.226,227.582 364.882,228.173 364.437,228.851C364.223,229.18 364.005,229.534 363.783,229.912C363.56,230.289 363.352,230.701 363.158,231.147C362.964,231.592 362.809,232.077 362.693,232.6C362.577,233.123 362.518,233.695 362.518,234.315C362.518,234.934 362.577,235.477 362.693,235.942C362.809,236.407 362.954,236.824 363.129,237.192C363.303,237.56 363.497,237.889 363.71,238.18C363.923,238.47 364.136,238.732 364.349,238.964C364.756,239.468 365.105,239.957 365.396,240.432C365.686,240.907 365.832,241.483 365.832,242.161C365.832,242.936 365.638,243.576 365.25,244.079C364.863,244.583 364.383,244.985 363.812,245.285C363.24,245.586 362.63,245.799 361.981,245.925C361.332,246.051 360.755,246.114 360.252,246.114C359.709,246.114 359.099,246.051 358.421,245.925C357.743,245.799 357.069,245.6 356.401,245.329C355.732,245.058 355.108,244.709 354.526,244.283C353.945,243.857 353.49,243.343 353.16,242.743C352.831,243.343 352.376,243.857 351.794,244.283C351.213,244.709 350.588,245.058 349.92,245.329C349.252,245.6 348.578,245.799 347.9,245.925C347.222,246.051 346.612,246.114 346.069,246.114C345.546,246.114 344.96,246.051 344.311,245.925C343.662,245.799 343.056,245.581 342.495,245.271C341.933,244.961 341.458,244.554 341.071,244.05C340.683,243.547 340.489,242.917 340.489,242.161C340.489,241.464 340.659,240.844 340.998,240.301C341.337,239.759 341.715,239.211 342.131,238.659C342.548,238.107 342.926,237.492 343.265,236.814C343.604,236.136 343.773,235.303 343.773,234.315ZM354.352,231.03C354.352,230.817 354.308,230.604 354.221,230.391C354.134,230.178 354.023,229.96 353.887,229.737C353.751,229.514 353.616,229.296 353.48,229.083C353.344,228.87 353.238,228.657 353.16,228.444C353.064,228.696 352.947,228.938 352.812,229.171C352.676,229.403 352.55,229.626 352.434,229.839C352.279,230.11 352.148,230.352 352.042,230.565C351.935,230.779 351.882,230.934 351.882,231.03C351.882,231.185 352.037,231.297 352.347,231.365C352.657,231.433 352.928,231.466 353.16,231.466C353.432,231.466 353.698,231.433 353.96,231.365C354.221,231.297 354.352,231.185 354.352,231.03ZM352.289,237.54C352.366,237.637 352.507,237.826 352.71,238.107C352.913,238.388 353.064,238.635 353.16,238.848C353.374,238.461 353.693,238.005 354.119,237.482C354.274,237.308 354.4,237.153 354.497,237.017C354.594,236.882 354.643,236.785 354.643,236.727C354.643,236.649 354.589,236.586 354.483,236.538C354.376,236.489 354.245,236.451 354.09,236.422C353.935,236.392 353.776,236.368 353.611,236.349C353.446,236.329 353.306,236.32 353.189,236.32C353.073,236.32 352.933,236.329 352.768,236.349C352.603,236.368 352.448,236.397 352.303,236.436C352.158,236.475 352.032,236.518 351.925,236.567C351.819,236.615 351.765,236.678 351.765,236.756C351.765,236.814 351.814,236.916 351.911,237.061C352.008,237.206 352.134,237.366 352.289,237.54Z" style="fill-rule:nonzero;"/>
                    </g>
                    <g transform="matrix(2.06396,0,0,2.06396,-559.305,-121.698)">
                        <path d="M318.664,231.844C317.617,231.844 316.818,231.558 316.266,230.987C315.714,230.415 315.438,229.539 315.438,228.357C315.438,227.252 315.656,226.322 316.092,225.567C316.528,224.811 317.099,224.186 317.806,223.692C318.513,223.198 319.313,222.82 320.204,222.559C321.095,222.297 321.982,222.104 322.863,221.978C323.745,221.852 324.587,221.779 325.391,221.76C326.196,221.74 326.869,221.731 327.411,221.731C328.148,221.731 328.966,221.745 329.867,221.774C330.768,221.803 331.679,221.886 332.599,222.021C333.519,222.157 334.415,222.365 335.287,222.646C336.159,222.927 336.934,223.31 337.612,223.794C338.29,224.278 338.833,224.889 339.24,225.625C339.646,226.361 339.85,227.252 339.85,228.299C339.85,229.539 339.564,230.44 338.993,231.001C338.421,231.563 337.632,231.844 336.624,231.844C335.927,231.844 335.389,231.723 335.011,231.481C334.633,231.239 334.323,230.977 334.081,230.696C333.839,230.415 333.606,230.154 333.384,229.912C333.161,229.669 332.846,229.548 332.439,229.548C332.148,229.548 331.901,229.713 331.698,230.042C331.495,230.372 331.335,230.783 331.218,231.278C331.102,231.772 331.02,232.304 330.971,232.876C330.923,233.447 330.899,233.975 330.899,234.46C330.899,235.196 330.962,235.811 331.088,236.305C331.214,236.799 331.378,237.23 331.582,237.599C331.785,237.967 331.998,238.296 332.221,238.587C332.444,238.877 332.657,239.182 332.86,239.502C333.064,239.822 333.229,240.175 333.355,240.563C333.48,240.95 333.543,241.435 333.543,242.016C333.543,242.927 333.335,243.658 332.919,244.21C332.502,244.762 331.989,245.189 331.378,245.489C330.768,245.789 330.124,245.993 329.446,246.099C328.768,246.206 328.167,246.259 327.644,246.259C327.121,246.259 326.52,246.211 325.842,246.114C325.164,246.017 324.52,245.813 323.909,245.503C323.299,245.193 322.781,244.762 322.355,244.21C321.928,243.658 321.715,242.927 321.715,242.016C321.715,241.396 321.783,240.892 321.919,240.505C322.054,240.117 322.219,239.783 322.413,239.502C322.606,239.221 322.819,238.955 323.052,238.703C323.284,238.451 323.498,238.146 323.691,237.787C323.885,237.429 324.05,236.998 324.185,236.494C324.321,235.99 324.389,235.332 324.389,234.518C324.389,234.034 324.365,233.501 324.316,232.92C324.268,232.338 324.185,231.801 324.069,231.307C323.953,230.813 323.793,230.396 323.59,230.057C323.386,229.718 323.129,229.548 322.819,229.548C322.413,229.548 322.098,229.669 321.875,229.912C321.652,230.154 321.42,230.415 321.177,230.696C320.935,230.977 320.63,231.239 320.262,231.481C319.894,231.723 319.361,231.844 318.664,231.844Z" style="fill-rule:nonzero;"/>
                    </g>
                    <g transform="matrix(2.06396,0,0,2.06396,-559.305,-121.698)">
                        <path d="M317.675,229.258C318.199,229.258 318.605,229.137 318.896,228.894C319.187,228.652 319.458,228.391 319.71,228.11C319.962,227.829 320.238,227.567 320.538,227.325C320.838,227.083 321.26,226.962 321.802,226.962C322.442,226.962 322.97,227.18 323.386,227.616C323.803,228.052 324.127,228.599 324.36,229.258C324.592,229.916 324.757,230.633 324.854,231.408C324.951,232.183 324.999,232.91 324.999,233.588C324.999,234.518 324.931,235.298 324.796,235.927C324.66,236.557 324.495,237.085 324.302,237.511C324.108,237.938 323.895,238.291 323.662,238.572C323.43,238.853 323.217,239.115 323.023,239.357C322.829,239.599 322.664,239.846 322.529,240.098C322.393,240.35 322.325,240.66 322.325,241.028C322.325,241.59 322.48,242.045 322.79,242.394C323.1,242.743 323.478,243.014 323.924,243.208C324.369,243.401 324.839,243.527 325.333,243.585C325.827,243.643 326.268,243.673 326.656,243.673C327.043,243.673 327.484,243.639 327.978,243.571C328.472,243.503 328.942,243.377 329.388,243.193C329.833,243.009 330.206,242.747 330.506,242.408C330.807,242.069 330.957,241.619 330.957,241.057C330.957,240.689 330.894,240.374 330.768,240.112C330.642,239.851 330.477,239.594 330.274,239.342C330.071,239.09 329.857,238.819 329.635,238.529C329.412,238.238 329.199,237.875 328.995,237.439C328.792,237.003 328.627,236.47 328.501,235.84C328.375,235.211 328.312,234.44 328.312,233.53C328.312,232.852 328.361,232.13 328.458,231.365C328.554,230.599 328.719,229.887 328.952,229.229C329.184,228.57 329.504,228.027 329.911,227.601C330.318,227.175 330.841,226.962 331.48,226.962C332.023,226.962 332.444,227.083 332.744,227.325C333.045,227.567 333.325,227.829 333.587,228.11C333.849,228.391 334.125,228.652 334.415,228.894C334.706,229.137 335.113,229.258 335.636,229.258C336.14,229.258 336.537,229.103 336.827,228.793C337.118,228.483 337.263,227.979 337.263,227.281C337.263,226.487 337.084,225.814 336.726,225.262C336.367,224.709 335.888,224.254 335.287,223.896C334.687,223.537 334.008,223.252 333.253,223.038C332.497,222.825 331.717,222.67 330.913,222.573C330.109,222.477 329.325,222.414 328.559,222.384C327.794,222.355 327.101,222.341 326.481,222.341C326.016,222.341 325.435,222.351 324.738,222.37C324.04,222.389 323.304,222.447 322.529,222.544C321.754,222.641 320.984,222.791 320.218,222.995C319.453,223.198 318.76,223.484 318.14,223.852C317.52,224.22 317.017,224.685 316.629,225.247C316.242,225.809 316.048,226.497 316.048,227.311C316.048,228.609 316.591,229.258 317.675,229.258Z" style="fill:rgb(0,211,255);fill-rule:nonzero;"/>
                    </g>
                    <g transform="matrix(2.06396,0,0,2.06396,-559.305,-121.698)">
                        <path d="M344.384,233.326C344.384,234.547 344.214,235.55 343.875,236.334C343.536,237.119 343.158,237.787 342.742,238.34C342.325,238.892 341.947,239.381 341.608,239.807C341.269,240.233 341.1,240.698 341.1,241.202C341.1,241.648 341.235,242.021 341.506,242.321C341.778,242.621 342.117,242.859 342.524,243.033C342.931,243.208 343.366,243.333 343.831,243.411C344.296,243.488 344.723,243.527 345.11,243.527C345.633,243.527 346.239,243.459 346.927,243.324C347.614,243.188 348.263,242.97 348.874,242.67C349.484,242.37 350.002,241.987 350.429,241.522C350.855,241.057 351.068,240.495 351.068,239.836C351.068,239.371 350.971,238.964 350.777,238.616C350.584,238.267 350.366,237.938 350.123,237.628C349.881,237.318 349.663,237.017 349.47,236.727C349.276,236.436 349.179,236.116 349.179,235.768C349.179,235.419 349.29,235.114 349.513,234.852C349.736,234.591 350.002,234.377 350.312,234.213C350.622,234.048 350.952,233.927 351.3,233.85C351.649,233.772 351.949,233.733 352.201,233.733C352.434,233.733 352.724,233.772 353.073,233.85C353.422,233.927 353.756,234.043 354.076,234.198C354.396,234.353 354.672,234.562 354.904,234.823C355.137,235.085 355.253,235.39 355.253,235.739C355.253,236.087 355.151,236.412 354.948,236.712C354.744,237.012 354.517,237.318 354.265,237.628C354.013,237.938 353.785,238.272 353.582,238.63C353.378,238.989 353.277,239.4 353.277,239.865C353.277,240.524 353.49,241.086 353.916,241.551C354.342,242.016 354.865,242.394 355.485,242.684C356.105,242.975 356.754,243.188 357.433,243.324C358.111,243.459 358.711,243.527 359.234,243.527C359.603,243.527 360.019,243.488 360.484,243.411C360.949,243.333 361.385,243.208 361.792,243.033C362.199,242.859 362.543,242.621 362.824,242.321C363.105,242.021 363.245,241.648 363.245,241.202C363.245,240.853 363.163,240.534 362.998,240.243C362.833,239.953 362.63,239.652 362.388,239.342C362.145,239.032 361.879,238.698 361.588,238.34C361.298,237.981 361.031,237.569 360.789,237.104C360.547,236.639 360.344,236.102 360.179,235.492C360.014,234.881 359.932,234.169 359.932,233.355C359.932,232.135 360.106,231.079 360.455,230.188C360.804,229.296 361.182,228.512 361.588,227.834C361.995,227.156 362.373,226.55 362.722,226.017C363.071,225.484 363.245,224.966 363.245,224.462C363.245,223.997 363.095,223.61 362.795,223.3C362.494,222.99 362.121,222.748 361.676,222.573C361.23,222.399 360.76,222.273 360.266,222.196C359.772,222.118 359.341,222.079 358.973,222.079C358.469,222.079 357.898,222.142 357.258,222.268C356.619,222.394 356.013,222.593 355.442,222.864C354.87,223.135 354.386,223.489 353.989,223.925C353.591,224.361 353.393,224.898 353.393,225.538C353.393,225.983 353.485,226.405 353.669,226.802C353.853,227.199 354.052,227.587 354.265,227.964C354.478,228.342 354.676,228.701 354.861,229.04C355.045,229.379 355.137,229.713 355.137,230.042C355.137,230.391 355.03,230.691 354.817,230.943C354.604,231.195 354.347,231.408 354.047,231.583C353.746,231.757 353.427,231.883 353.088,231.96C352.749,232.038 352.453,232.077 352.201,232.077C351.969,232.077 351.683,232.038 351.344,231.96C351.005,231.883 350.685,231.767 350.385,231.612C350.085,231.457 349.828,231.248 349.615,230.987C349.402,230.725 349.295,230.42 349.295,230.071C349.295,229.742 349.382,229.403 349.557,229.054C349.731,228.706 349.92,228.342 350.123,227.964C350.327,227.587 350.516,227.199 350.69,226.802C350.864,226.405 350.952,225.993 350.952,225.567C350.952,224.927 350.753,224.39 350.356,223.954C349.959,223.518 349.47,223.159 348.888,222.879C348.307,222.598 347.692,222.394 347.043,222.268C346.394,222.142 345.817,222.079 345.314,222.079C344.926,222.079 344.485,222.118 343.991,222.196C343.497,222.273 343.037,222.409 342.611,222.602C342.185,222.796 341.826,223.043 341.536,223.344C341.245,223.644 341.1,224.026 341.1,224.491C341.1,224.995 341.269,225.514 341.608,226.046C341.947,226.579 342.325,227.18 342.742,227.848C343.158,228.517 343.536,229.292 343.875,230.173C344.214,231.055 344.384,232.106 344.384,233.326Z" style="fill:rgb(0,211,255);fill-rule:nonzero;"/>
                    </g>
                    <g transform="matrix(2.06396,0,0,2.06396,-559.305,-121.698)">
                        <path d="M371.411,233.995C371.411,233.007 371.237,232.178 370.888,231.51C370.54,230.842 370.157,230.217 369.74,229.635C369.324,229.054 368.941,228.478 368.592,227.906C368.244,227.335 368.069,226.661 368.069,225.886C368.069,224.976 368.365,224.211 368.956,223.591C369.547,222.971 370.322,222.477 371.281,222.108C372.24,221.74 373.339,221.479 374.579,221.324C375.819,221.169 377.088,221.091 378.386,221.091C379.704,221.091 381.002,221.178 382.281,221.353C383.559,221.527 384.698,221.832 385.695,222.268C386.693,222.704 387.502,223.31 388.122,224.085C388.742,224.86 389.052,225.838 389.052,227.02C389.052,227.582 389.004,228.095 388.907,228.56C388.81,229.025 388.631,229.422 388.369,229.752C388.108,230.081 387.754,230.338 387.308,230.522C386.863,230.706 386.291,230.798 385.594,230.798C385.032,230.798 384.514,230.716 384.039,230.551C383.564,230.386 383.094,230.202 382.629,229.999C382.164,229.795 381.69,229.606 381.205,229.432C380.721,229.258 380.179,229.171 379.578,229.171C379.365,229.171 379.219,229.301 379.142,229.563C379.064,229.824 379.016,230.071 378.997,230.304C379.268,230.168 379.568,230.047 379.898,229.941C380.227,229.834 380.576,229.781 380.944,229.781C381.486,229.781 381.956,229.907 382.353,230.159C382.751,230.41 383.075,230.725 383.327,231.103C383.579,231.481 383.763,231.888 383.879,232.324C383.995,232.76 384.053,233.162 384.053,233.53C384.053,233.917 383.991,234.329 383.865,234.765C383.739,235.201 383.545,235.608 383.283,235.986C383.022,236.363 382.688,236.678 382.281,236.93C381.874,237.182 381.399,237.308 380.857,237.308C380.527,237.308 380.203,237.255 379.883,237.148C379.563,237.042 379.152,236.901 378.648,236.727C378.667,237.114 378.759,237.419 378.924,237.642C379.089,237.865 379.292,238.034 379.534,238.151C379.777,238.267 380.028,238.34 380.29,238.369C380.551,238.398 380.789,238.412 381.002,238.412C381.486,238.412 381.893,238.301 382.223,238.078C382.552,237.855 382.843,237.569 383.094,237.221C383.346,236.872 383.584,236.504 383.806,236.116C384.029,235.729 384.276,235.361 384.548,235.012C384.819,234.663 385.143,234.377 385.521,234.155C385.899,233.932 386.369,233.82 386.931,233.82C387.919,233.82 388.723,234.126 389.343,234.736C389.963,235.346 390.273,236.194 390.273,237.279C390.273,238.693 390.021,239.894 389.517,240.883C389.013,241.871 388.36,242.699 387.555,243.367C386.751,244.036 385.846,244.564 384.838,244.951C383.831,245.339 382.828,245.629 381.83,245.823C380.832,246.017 379.883,246.143 378.982,246.201C378.081,246.259 377.33,246.288 376.73,246.288C375.935,246.288 375.039,246.259 374.042,246.201C373.044,246.143 372.099,245.968 371.208,245.678C370.317,245.387 369.566,244.922 368.956,244.283C368.345,243.643 368.04,242.743 368.04,241.58C368.04,240.786 368.215,240.117 368.563,239.575C368.912,239.032 369.3,238.499 369.726,237.976C370.152,237.453 370.54,236.891 370.888,236.291C371.237,235.69 371.411,234.925 371.411,233.995Z" style="fill-rule:nonzero;"/>
                    </g>
                    <g transform="matrix(2.06396,0,0,2.06396,-559.305,-121.698)">
                        <path d="M372.022,233.007C372.022,233.84 371.939,234.542 371.775,235.114C371.61,235.685 371.402,236.184 371.15,236.61C370.898,237.037 370.627,237.405 370.336,237.715C370.046,238.025 369.774,238.32 369.522,238.601C369.271,238.882 369.062,239.178 368.898,239.488C368.733,239.798 368.651,240.166 368.651,240.592C368.651,241.367 368.898,241.963 369.392,242.379C369.886,242.796 370.496,243.101 371.223,243.295C371.949,243.488 372.724,243.605 373.548,243.643C374.371,243.682 375.102,243.702 375.742,243.702C376.245,243.702 376.895,243.682 377.689,243.643C378.483,243.605 379.321,243.508 380.203,243.353C381.084,243.198 381.971,242.96 382.862,242.641C383.753,242.321 384.557,241.89 385.274,241.348C385.991,240.805 386.572,240.122 387.018,239.299C387.463,238.475 387.686,237.473 387.686,236.291C387.686,235.709 387.522,235.254 387.192,234.925C386.863,234.595 386.446,234.431 385.943,234.431C385.574,234.431 385.269,234.542 385.027,234.765C384.785,234.988 384.567,235.274 384.373,235.622C384.179,235.971 383.976,236.339 383.763,236.727C383.55,237.114 383.288,237.482 382.978,237.831C382.668,238.18 382.276,238.466 381.801,238.688C381.326,238.911 380.731,239.023 380.014,239.023C379.723,239.023 379.36,239.003 378.924,238.964C378.488,238.926 378.067,238.809 377.66,238.616C377.253,238.422 376.904,238.117 376.614,237.7C376.323,237.284 376.178,236.688 376.178,235.913C376.178,235.177 376.304,234.687 376.555,234.445C376.807,234.203 377.098,234.082 377.427,234.082C377.66,234.082 377.878,234.116 378.081,234.184C378.285,234.252 378.488,234.324 378.692,234.402C378.895,234.479 379.094,234.552 379.287,234.62C379.481,234.687 379.675,234.721 379.869,234.721C380.14,234.721 380.377,234.649 380.581,234.503C380.784,234.358 380.949,234.179 381.075,233.966C381.201,233.753 381.297,233.515 381.365,233.254C381.433,232.992 381.467,232.755 381.467,232.542C381.467,232.329 381.438,232.096 381.38,231.844C381.322,231.592 381.234,231.36 381.118,231.147C381.002,230.934 380.847,230.754 380.653,230.609C380.459,230.464 380.227,230.391 379.956,230.391C379.743,230.391 379.529,230.43 379.316,230.507C379.103,230.585 378.895,230.672 378.692,230.769C378.488,230.866 378.285,230.953 378.081,231.03C377.878,231.108 377.679,231.147 377.485,231.147C377.117,231.147 376.846,231.001 376.672,230.711C376.497,230.42 376.41,230.023 376.41,229.519C376.41,229.267 376.439,228.972 376.497,228.633C376.555,228.294 376.662,227.969 376.817,227.659C376.972,227.349 377.195,227.093 377.485,226.889C377.776,226.686 378.144,226.584 378.59,226.584C379.016,226.584 379.471,226.671 379.956,226.846C380.44,227.02 380.944,227.209 381.467,227.412C381.99,227.616 382.518,227.8 383.051,227.964C383.584,228.129 384.102,228.211 384.606,228.211C385.342,228.211 385.836,228.013 386.088,227.616C386.34,227.218 386.466,226.691 386.466,226.032C386.466,225.16 386.204,224.443 385.681,223.881C385.158,223.319 384.47,222.879 383.618,222.559C382.765,222.239 381.796,222.016 380.711,221.89C379.626,221.764 378.522,221.702 377.398,221.702C376.294,221.702 375.219,221.755 374.172,221.861C373.126,221.968 372.196,222.142 371.382,222.384C370.569,222.627 369.915,222.956 369.421,223.373C368.927,223.789 368.68,224.298 368.68,224.898C368.68,225.518 368.854,226.061 369.203,226.526C369.551,226.991 369.934,227.495 370.351,228.037C370.767,228.58 371.15,229.233 371.499,229.999C371.847,230.764 372.022,231.767 372.022,233.007Z" style="fill:rgb(0,211,255);fill-rule:nonzero;"/>
                    </g>
                </g>
            </g>
            <g transform="matrix(1,0,0,2.61097,0,-305.243)">
                <path d="M37.648,297.289C37.648,293.528 36.984,290.19 35.657,287.277C34.329,284.363 32.872,281.653 31.287,279.145C29.701,276.637 28.244,274.203 26.916,271.843C25.589,269.482 24.925,266.901 24.925,264.098C24.925,261.812 25.349,259.912 26.197,258.4C27.045,256.888 28.189,255.69 29.627,254.805C31.065,253.919 32.706,253.292 34.55,252.924C36.394,252.555 38.349,252.37 40.414,252.37C41.594,252.37 43.512,252.426 46.167,252.536C48.823,252.647 51.921,252.887 55.461,253.256C59.001,253.624 62.837,254.122 66.967,254.749C71.098,255.376 75.228,256.187 79.359,257.183C83.489,258.179 87.454,259.378 91.252,260.779C95.051,262.18 98.425,263.84 101.376,265.758C104.326,267.675 106.686,269.87 108.456,272.341C110.227,274.812 111.112,277.596 111.112,280.694C111.112,282.907 110.688,284.843 109.839,286.502C108.991,288.162 107.903,289.6 106.576,290.817C105.248,292.034 103.773,293.067 102.15,293.915C100.527,294.763 98.942,295.445 97.393,295.962C98.352,297.732 99.587,299.631 101.099,301.66C102.611,303.688 104.252,305.79 106.022,307.966C107.793,310.142 109.563,312.373 111.333,314.66C113.103,316.946 114.707,319.251 116.146,321.574C117.584,323.898 118.764,326.184 119.686,328.434C120.608,330.684 121.069,332.878 121.069,335.017C121.069,337.156 120.571,339 119.576,340.549C118.58,342.098 117.215,343.352 115.482,344.31C113.749,345.269 111.739,345.97 109.452,346.413C107.166,346.855 104.769,347.076 102.261,347.076C97.688,347.076 94.018,346.505 91.252,345.362C88.486,344.218 86.274,342.688 84.614,340.77C82.954,338.852 81.682,336.658 80.797,334.187C79.912,331.716 79.082,329.153 78.308,326.498C77.533,323.842 76.611,321.206 75.542,318.587C74.472,315.969 72.979,313.553 71.061,311.34C71.577,312.816 72.149,314.309 72.776,315.821C73.403,317.333 74.011,318.864 74.601,320.413C75.191,321.962 75.689,323.547 76.095,325.17C76.501,326.793 76.703,328.452 76.703,330.149C76.703,332.878 75.91,335.257 74.325,337.285C72.739,339.313 70.692,341.01 68.184,342.374C65.676,343.739 62.929,344.753 59.942,345.417C56.955,346.081 54.06,346.413 51.257,346.413C49.118,346.413 46.555,346.173 43.567,345.693C40.58,345.214 37.704,344.384 34.938,343.204C32.172,342.024 29.83,340.401 27.912,338.336C25.994,336.271 25.036,333.652 25.036,330.481C25.036,327.825 25.699,325.318 27.027,322.957C28.355,320.597 29.793,318.126 31.342,315.545C32.891,312.963 34.329,310.216 35.657,307.302C36.984,304.389 37.648,301.051 37.648,297.289Z" style="fill-rule:nonzero;"/>
            </g>
            <g transform="matrix(1,0,0,2.61097,0,-305.243)">
                <path d="M309.707,329.264C309.707,326.461 310.002,323.842 310.592,321.408C311.182,318.974 312.214,316.872 313.689,315.102C315.165,313.332 317.138,311.93 319.609,310.898C322.08,309.865 325.196,309.349 328.957,309.349C333.752,309.349 337.809,310.4 341.128,312.502C344.447,314.604 347.618,317.462 350.642,321.077C351.749,321.077 352.911,320.486 354.128,319.306C355.345,318.126 355.953,316.688 355.953,314.991C355.953,314.549 355.547,314.106 354.736,313.664C353.925,313.221 352.837,312.76 351.472,312.281C350.108,311.801 348.54,311.304 346.77,310.787C345,310.271 343.193,309.755 341.349,309.238C337.956,308.279 334.582,307.247 331.226,306.14C327.87,305.034 324.864,303.651 322.209,301.992C319.553,300.332 317.396,298.322 315.736,295.962C314.077,293.601 313.247,290.651 313.247,287.111C313.247,282.907 314.335,278.776 316.511,274.719C318.687,270.663 321.416,267.048 324.698,263.877C327.98,260.705 331.521,258.142 335.319,256.187C339.118,254.233 342.677,253.256 345.996,253.256C347.84,253.256 349.628,253.551 351.362,254.141C353.095,254.731 354.755,255.376 356.34,256.077C357.926,256.778 359.438,257.423 360.876,258.013C362.315,258.603 363.661,258.898 364.915,258.898C366.095,258.898 367.238,258.585 368.345,257.958C369.451,257.331 370.594,256.667 371.774,255.966C372.954,255.266 374.19,254.602 375.481,253.975C376.771,253.348 378.191,253.034 379.74,253.034C382.396,253.034 384.608,253.717 386.378,255.081C388.149,256.446 389.569,258.124 390.638,260.115C391.708,262.107 392.464,264.246 392.906,266.532C393.349,268.819 393.57,270.847 393.57,272.617C393.57,275.273 393.201,277.78 392.464,280.141C391.726,282.501 390.546,284.566 388.923,286.336C387.3,288.106 385.217,289.508 382.672,290.541C380.127,291.573 377.085,292.089 373.545,292.089C370.447,292.089 367.81,291.739 365.634,291.038C363.458,290.338 361.559,289.434 359.936,288.328C358.313,287.221 356.912,285.986 355.732,284.621C354.552,283.257 353.408,281.911 352.302,280.583C352.081,280.731 351.694,280.97 351.14,281.302C350.587,281.634 350.052,282.058 349.536,282.575C349.02,283.091 348.559,283.681 348.153,284.345C347.747,285.009 347.545,285.709 347.545,286.447C347.545,286.816 347.95,287.203 348.762,287.609C349.573,288.014 350.661,288.457 352.025,288.936C353.39,289.416 354.939,289.914 356.672,290.43C358.406,290.946 360.194,291.462 362.038,291.979C365.431,292.938 368.861,293.989 372.327,295.132C375.794,296.275 378.929,297.732 381.732,299.502C384.535,301.272 386.821,303.43 388.591,305.974C390.361,308.519 391.247,311.672 391.247,315.434C391.247,318.679 390.343,322.164 388.536,325.889C386.729,329.614 384.313,333.081 381.289,336.289C378.265,339.498 374.762,342.171 370.779,344.31C366.796,346.449 362.591,347.519 358.166,347.519C355.584,347.519 353.408,347.205 351.638,346.579C349.868,345.952 348.282,345.288 346.881,344.587C345.479,343.886 344.115,343.223 342.787,342.596C341.46,341.969 339.948,341.655 338.251,341.655C336.997,341.655 335.817,341.987 334.711,342.651C333.604,343.315 332.443,344.034 331.226,344.808C330.009,345.583 328.718,346.302 327.353,346.966C325.989,347.63 324.495,347.962 322.872,347.962C320.217,347.962 318.023,347.335 316.289,346.081C314.556,344.827 313.21,343.278 312.251,341.434C311.292,339.59 310.629,337.58 310.26,335.404C309.891,333.228 309.707,331.181 309.707,329.264Z" style="fill-rule:nonzero;"/>
            </g>
            <g transform="matrix(1,0,0,2.61097,0,-305.243)">
                <path d="M411.936,292.311C407.953,292.311 404.91,291.223 402.808,289.047C400.706,286.871 399.655,283.533 399.655,279.034C399.655,274.83 400.485,271.29 402.144,268.413C403.804,265.536 405.98,263.158 408.672,261.277C411.364,259.396 414.407,257.958 417.8,256.962C421.193,255.966 424.567,255.229 427.923,254.749C431.279,254.27 434.487,253.993 437.548,253.919C440.609,253.846 443.173,253.809 445.238,253.809C448.041,253.809 451.157,253.864 454.587,253.975C458.016,254.085 461.483,254.399 464.987,254.915C468.49,255.431 471.901,256.224 475.221,257.294C478.54,258.363 481.49,259.82 484.072,261.664C486.653,263.508 488.718,265.831 490.267,268.634C491.816,271.437 492.591,274.83 492.591,278.813C492.591,283.533 491.503,286.963 489.327,289.102C487.151,291.241 484.145,292.311 480.31,292.311C477.655,292.311 475.608,291.85 474.17,290.928C472.731,290.006 471.551,289.01 470.629,287.941C469.707,286.871 468.822,285.875 467.974,284.953C467.126,284.031 465.927,283.57 464.378,283.57C463.272,283.57 462.331,284.197 461.557,285.451C460.782,286.705 460.174,288.272 459.731,290.153C459.289,292.034 458.975,294.062 458.791,296.238C458.607,298.414 458.514,300.424 458.514,302.268C458.514,305.071 458.754,307.413 459.233,309.294C459.713,311.174 460.34,312.816 461.114,314.217C461.889,315.618 462.7,316.872 463.548,317.979C464.397,319.085 465.208,320.247 465.982,321.464C466.757,322.681 467.384,324.027 467.863,325.502C468.343,326.977 468.582,328.821 468.582,331.034C468.582,334.501 467.789,337.285 466.204,339.387C464.618,341.489 462.663,343.112 460.34,344.255C458.016,345.398 455.564,346.173 452.982,346.579C450.401,346.984 448.114,347.187 446.123,347.187C444.131,347.187 441.845,347.003 439.263,346.634C436.682,346.265 434.229,345.491 431.906,344.31C429.583,343.13 427.609,341.489 425.987,339.387C424.364,337.285 423.553,334.501 423.553,331.034C423.553,328.674 423.811,326.756 424.327,325.281C424.844,323.806 425.471,322.533 426.208,321.464C426.946,320.394 427.757,319.38 428.642,318.421C429.527,317.462 430.339,316.301 431.076,314.936C431.814,313.572 432.441,311.93 432.957,310.013C433.473,308.095 433.731,305.587 433.731,302.489C433.731,300.645 433.639,298.617 433.455,296.404C433.27,294.192 432.957,292.145 432.514,290.264C432.072,288.383 431.463,286.797 430.689,285.506C429.914,284.216 428.937,283.57 427.757,283.57C426.208,283.57 425.01,284.031 424.161,284.953C423.313,285.875 422.428,286.871 421.506,287.941C420.584,289.01 419.422,290.006 418.021,290.928C416.619,291.85 414.591,292.311 411.936,292.311Z" style="fill-rule:nonzero;"/>
            </g>
            <g transform="matrix(1,0,0,2.61097,0,-305.243)">
                <path d="M509.076,300.498C509.076,296.736 508.412,293.583 507.084,291.038C505.757,288.494 504.3,286.115 502.714,283.902C501.128,281.689 499.672,279.495 498.344,277.319C497.016,275.143 496.352,272.58 496.352,269.63C496.352,266.163 497.477,263.25 499.727,260.89C501.977,258.529 504.927,256.648 508.578,255.247C512.229,253.846 516.415,252.85 521.135,252.26C525.856,251.67 530.687,251.375 535.629,251.375C540.644,251.375 545.586,251.707 550.454,252.37C555.322,253.034 559.656,254.196 563.454,255.856C567.253,257.515 570.332,259.82 572.692,262.77C575.053,265.721 576.233,269.446 576.233,273.945C576.233,276.084 576.048,278.038 575.68,279.809C575.311,281.579 574.629,283.091 573.633,284.345C572.637,285.599 571.291,286.576 569.595,287.277C567.898,287.977 565.722,288.328 563.067,288.328C560.928,288.328 558.955,288.014 557.148,287.387C555.341,286.76 553.552,286.06 551.782,285.285C550.012,284.511 548.205,283.792 546.361,283.128C544.517,282.464 542.451,282.132 540.165,282.132C539.354,282.132 538.8,282.63 538.505,283.626C538.21,284.621 538.026,285.562 537.952,286.447C538.985,285.931 540.128,285.47 541.382,285.064C542.636,284.658 543.964,284.455 545.365,284.455C547.43,284.455 549.219,284.935 550.731,285.894C552.243,286.853 553.478,288.051 554.437,289.489C555.396,290.928 556.097,292.477 556.539,294.136C556.982,295.796 557.203,297.326 557.203,298.728C557.203,300.203 556.963,301.77 556.484,303.43C556.005,305.089 555.267,306.638 554.271,308.077C553.276,309.515 552.003,310.713 550.454,311.672C548.905,312.631 547.098,313.111 545.033,313.111C543.779,313.111 542.544,312.908 541.327,312.502C540.11,312.096 538.542,311.562 536.625,310.898C536.698,312.373 537.049,313.535 537.676,314.383C538.303,315.231 539.077,315.877 539.999,316.319C540.921,316.762 541.88,317.038 542.876,317.149C543.871,317.26 544.775,317.315 545.586,317.315C547.43,317.315 548.979,316.891 550.233,316.043C551.487,315.194 552.593,314.106 553.552,312.779C554.511,311.451 555.415,310.05 556.263,308.574C557.111,307.099 558.051,305.698 559.084,304.37C560.117,303.043 561.352,301.955 562.79,301.106C564.229,300.258 566.017,299.834 568.156,299.834C571.918,299.834 574.979,300.996 577.339,303.319C579.7,305.643 580.88,308.87 580.88,313C580.88,318.384 579.921,322.957 578.003,326.719C576.085,330.481 573.596,333.634 570.535,336.179C567.474,338.723 564.026,340.733 560.19,342.208C556.355,343.684 552.538,344.79 548.739,345.527C544.941,346.265 541.327,346.744 537.897,346.966C534.467,347.187 531.609,347.298 529.322,347.298C526.298,347.298 522.887,347.187 519.088,346.966C515.29,346.744 511.694,346.081 508.301,344.974C504.908,343.868 502.05,342.098 499.727,339.664C497.403,337.23 496.242,333.8 496.242,329.374C496.242,326.35 496.906,323.806 498.233,321.74C499.561,319.675 501.036,317.647 502.659,315.655C504.281,313.664 505.757,311.525 507.084,309.238C508.412,306.952 509.076,304.038 509.076,300.498Z" style="fill-rule:nonzero;"/>
            </g>
            <g transform="matrix(1,0,0,2.61097,0,-305.243)">
                <path d="M597.365,297.289C597.365,293.528 596.701,290.19 595.373,287.277C594.046,284.363 592.589,281.653 591.003,279.145C589.417,276.637 587.96,274.203 586.633,271.843C585.305,269.482 584.641,266.901 584.641,264.098C584.641,261.812 585.065,259.912 585.914,258.4C586.762,256.888 587.905,255.69 589.343,254.805C590.782,253.919 592.423,253.292 594.267,252.924C596.111,252.555 598.065,252.37 600.131,252.37C601.311,252.37 603.229,252.426 605.884,252.536C608.539,252.647 611.637,252.887 615.177,253.256C618.718,253.624 622.553,254.122 626.684,254.749C630.814,255.376 634.945,256.187 639.075,257.183C643.206,258.179 647.17,259.378 650.969,260.779C654.767,262.18 658.142,263.84 661.092,265.758C664.042,267.675 666.403,269.87 668.173,272.341C669.943,274.812 670.828,277.596 670.828,280.694C670.828,282.907 670.404,284.843 669.556,286.502C668.708,288.162 667.62,289.6 666.292,290.817C664.964,292.034 663.489,293.067 661.867,293.915C660.244,294.763 658.658,295.445 657.109,295.962C658.068,297.732 659.303,299.631 660.815,301.66C662.328,303.688 663.969,305.79 665.739,307.966C667.509,310.142 669.279,312.373 671.049,314.66C672.82,316.946 674.424,319.251 675.862,321.574C677.3,323.898 678.481,326.184 679.403,328.434C680.325,330.684 680.786,332.878 680.786,335.017C680.786,337.156 680.288,339 679.292,340.549C678.296,342.098 676.932,343.352 675.198,344.31C673.465,345.269 671.455,345.97 669.169,346.413C666.882,346.855 664.485,347.076 661.977,347.076C657.404,347.076 653.735,346.505 650.969,345.362C648.203,344.218 645.99,342.688 644.33,340.77C642.671,338.852 641.399,336.658 640.513,334.187C639.628,331.716 638.799,329.153 638.024,326.498C637.25,323.842 636.328,321.206 635.258,318.587C634.189,315.969 632.695,313.553 630.777,311.34C631.294,312.816 631.865,314.309 632.492,315.821C633.119,317.333 633.728,318.864 634.318,320.413C634.908,321.962 635.406,323.547 635.811,325.17C636.217,326.793 636.42,328.452 636.42,330.149C636.42,332.878 635.627,335.257 634.041,337.285C632.455,339.313 630.409,341.01 627.901,342.374C625.393,343.739 622.645,344.753 619.658,345.417C616.671,346.081 613.776,346.413 610.973,346.413C608.834,346.413 606.271,346.173 603.284,345.693C600.297,345.214 597.42,344.384 594.654,343.204C591.888,342.024 589.546,340.401 587.629,338.336C585.711,336.271 584.752,333.652 584.752,330.481C584.752,327.825 585.416,325.318 586.743,322.957C588.071,320.597 589.509,318.126 591.058,315.545C592.607,312.963 594.046,310.216 595.373,307.302C596.701,304.389 597.365,301.051 597.365,297.289Z" style="fill-rule:nonzero;"/>
            </g>
            <g transform="matrix(1,0,0,2.61097,0,-305.243)">
                <path d="M39.972,293.528C39.972,288.807 39.308,284.824 37.98,281.579C36.653,278.333 35.196,275.512 33.61,273.115C32.024,270.718 30.567,268.56 29.24,266.643C27.912,264.725 27.248,262.734 27.248,260.668C27.248,258.308 28.17,256.722 30.014,255.911C31.858,255.1 34.182,254.694 36.984,254.694C38.017,254.694 39.75,254.749 42.184,254.86C44.618,254.97 47.44,255.173 50.648,255.468C53.857,255.763 57.342,256.151 61.103,256.63C64.865,257.109 68.608,257.736 72.333,258.511C76.058,259.285 79.672,260.207 83.176,261.277C86.679,262.346 89.759,263.619 92.414,265.094C95.069,266.569 97.208,268.247 98.831,270.128C100.454,272.009 101.265,274.129 101.265,276.49C101.265,278.85 100.546,280.712 99.108,282.077C97.669,283.441 96.065,284.585 94.295,285.506C92.525,286.428 90.92,287.332 89.482,288.217C88.044,289.102 87.325,290.209 87.325,291.536C87.325,292.716 87.915,294.284 89.095,296.238C90.275,298.193 91.75,300.369 93.52,302.766C95.291,305.163 97.208,307.671 99.273,310.289C101.339,312.908 103.256,315.489 105.027,318.034C106.797,320.579 108.272,322.957 109.452,325.17C110.632,327.383 111.222,329.264 111.222,330.813C111.222,331.993 110.89,332.989 110.227,333.8C109.563,334.611 108.678,335.275 107.571,335.791C106.465,336.308 105.174,336.676 103.699,336.898C102.224,337.119 100.675,337.23 99.052,337.23C95.364,337.23 92.377,336.695 90.091,335.625C87.804,334.556 85.979,333.136 84.614,331.366C83.249,329.596 82.217,327.586 81.516,325.336C80.815,323.086 80.188,320.8 79.635,318.477C79.082,316.153 78.455,313.867 77.754,311.617C77.054,309.367 76.021,307.357 74.657,305.587C73.292,303.817 71.467,302.397 69.18,301.328C66.894,300.258 63.869,299.723 60.108,299.723C59.591,299.723 59.333,300.166 59.333,301.051C59.333,302.305 59.72,304.038 60.495,306.251C61.269,308.464 62.136,310.787 63.095,313.221C64.054,315.655 64.92,318.034 65.695,320.357C66.469,322.681 66.857,324.58 66.857,326.055C66.857,327.825 66.248,329.374 65.031,330.702C63.814,332.03 62.265,333.118 60.384,333.966C58.503,334.814 56.42,335.459 54.133,335.902C51.847,336.345 49.634,336.566 47.495,336.566C45.872,336.566 43.899,336.418 41.576,336.123C39.253,335.828 37.04,335.312 34.938,334.574C32.836,333.837 31.047,332.841 29.572,331.587C28.097,330.333 27.359,328.711 27.359,326.719C27.359,324.875 28.023,322.976 29.35,321.021C30.678,319.067 32.116,316.835 33.665,314.328C35.214,311.82 36.653,308.906 37.98,305.587C39.308,302.268 39.972,298.248 39.972,293.528ZM62.542,274.387C61.14,274.387 60.034,274.572 59.223,274.941C58.411,275.309 57.784,275.77 57.342,276.324C56.899,276.877 56.604,277.485 56.457,278.149C56.309,278.813 56.235,279.477 56.235,280.141C56.235,281.911 56.604,283.46 57.342,284.787C58.079,286.115 59.26,286.779 60.882,286.779C61.841,286.779 63.169,286.742 64.865,286.668C66.562,286.594 68.203,286.355 69.789,285.949C71.374,285.543 72.757,284.935 73.937,284.124C75.118,283.312 75.708,282.169 75.708,280.694C75.708,279.292 75.136,278.168 73.993,277.319C72.85,276.471 71.522,275.826 70.01,275.383C68.498,274.941 67.023,274.664 65.584,274.553C64.146,274.443 63.132,274.387 62.542,274.387ZM161.563,336.013C156.99,336.013 152.306,335.072 147.512,333.191C142.717,331.311 138.366,328.711 134.456,325.391C130.547,322.072 127.357,318.126 124.886,313.553C122.415,308.98 121.18,304.001 121.18,298.617C121.18,293.528 122.323,288.623 124.61,283.902C126.896,279.182 129.902,275.014 133.627,271.4C137.351,267.786 141.592,264.909 146.35,262.77C151.107,260.631 155.957,259.562 160.899,259.562C165.398,259.562 170.063,260.429 174.894,262.162C179.726,263.895 184.096,266.385 188.005,269.63C191.914,272.875 195.141,276.821 197.686,281.468C200.23,286.115 201.503,291.315 201.503,297.068C201.503,302.6 200.341,307.726 198.018,312.447C195.694,317.167 192.652,321.279 188.89,324.783C185.128,328.286 180.85,331.034 176.056,333.025C171.262,335.017 166.431,336.013 161.563,336.013ZM176.609,297.4C176.609,294.523 176.222,291.628 175.448,288.715C174.673,285.802 173.567,283.202 172.128,280.915C170.69,278.629 168.994,276.766 167.039,275.328C165.085,273.89 162.964,273.17 160.677,273.17C158.17,273.17 156.012,274.019 154.205,275.715C152.398,277.411 150.904,279.532 149.724,282.077C148.544,284.621 147.678,287.35 147.124,290.264C146.571,293.177 146.295,295.814 146.295,298.175C146.295,301.199 146.663,304.167 147.401,307.081C148.139,309.994 149.171,312.576 150.499,314.826C151.826,317.075 153.449,318.882 155.367,320.247C157.285,321.611 159.46,322.294 161.894,322.294C164.476,322.294 166.689,321.519 168.533,319.97C170.377,318.421 171.907,316.43 173.124,313.996C174.341,311.562 175.226,308.87 175.78,305.919C176.333,302.969 176.609,300.129 176.609,297.4ZM256.268,336.013C251.695,336.013 247.012,335.072 242.217,333.191C237.423,331.311 233.071,328.711 229.162,325.391C225.253,322.072 222.063,318.126 219.592,313.553C217.121,308.98 215.886,304.001 215.886,298.617C215.886,293.528 217.029,288.623 219.315,283.902C221.602,279.182 224.608,275.014 228.332,271.4C232.057,267.786 236.298,264.909 241.056,262.77C245.813,260.631 250.663,259.562 255.605,259.562C260.104,259.562 264.769,260.429 269.6,262.162C274.432,263.895 278.802,266.385 282.711,269.63C286.62,272.875 289.847,276.821 292.392,281.468C294.936,286.115 296.209,291.315 296.209,297.068C296.209,302.6 295.047,307.726 292.724,312.447C290.4,317.167 287.358,321.279 283.596,324.783C279.834,328.286 275.556,331.034 270.762,333.025C265.968,335.017 261.137,336.013 256.268,336.013ZM271.315,297.4C271.315,294.523 270.928,291.628 270.154,288.715C269.379,285.802 268.273,283.202 266.834,280.915C265.396,278.629 263.7,276.766 261.745,275.328C259.79,273.89 257.67,273.17 255.383,273.17C252.876,273.17 250.718,274.019 248.911,275.715C247.104,277.411 245.61,279.532 244.43,282.077C243.25,284.621 242.383,287.35 241.83,290.264C241.277,293.177 241,295.814 241,298.175C241,301.199 241.369,304.167 242.107,307.081C242.844,309.994 243.877,312.576 245.205,314.826C246.532,317.075 248.155,318.882 250.073,320.247C251.99,321.611 254.166,322.294 256.6,322.294C259.182,322.294 261.395,321.519 263.239,319.97C265.083,318.421 266.613,316.43 267.83,313.996C269.047,311.562 269.932,308.87 270.485,305.919C271.039,302.969 271.315,300.129 271.315,297.4ZM312.03,325.502C312.03,323.584 312.233,321.777 312.638,320.081C313.044,318.384 313.763,316.909 314.796,315.655C315.828,314.401 317.175,313.424 318.834,312.723C320.494,312.023 322.614,311.672 325.196,311.672C328.736,311.672 331.576,312.281 333.715,313.498C335.854,314.715 337.679,316.061 339.191,317.536C340.704,319.011 342.013,320.357 343.119,321.574C344.226,322.791 345.479,323.4 346.881,323.4C348.061,323.4 349.315,323.086 350.642,322.46C351.97,321.833 353.206,320.966 354.349,319.86C355.492,318.753 356.433,317.462 357.17,315.987C357.908,314.512 358.276,312.926 358.276,311.23C358.276,309.017 357.225,307.191 355.123,305.753C353.021,304.315 350.384,303.061 347.213,301.992C344.041,300.922 340.611,299.908 336.923,298.949C333.235,297.99 329.806,296.847 326.634,295.519C323.462,294.192 320.826,292.569 318.723,290.651C316.621,288.733 315.57,286.299 315.57,283.349C315.57,280.62 316.455,277.633 318.226,274.387C319.996,271.142 322.209,268.136 324.864,265.37C327.519,262.604 330.414,260.281 333.549,258.4C336.684,256.519 339.579,255.579 342.234,255.579C344.078,255.579 345.811,255.874 347.434,256.464C349.057,257.054 350.606,257.7 352.081,258.4C353.556,259.101 355.031,259.746 356.506,260.336C357.981,260.926 359.53,261.222 361.153,261.222C362.776,261.222 364.232,260.908 365.523,260.281C366.814,259.654 368.031,258.99 369.174,258.29C370.318,257.589 371.424,256.925 372.493,256.298C373.563,255.671 374.725,255.358 375.979,255.358C377.454,255.358 378.689,255.819 379.685,256.741C380.681,257.663 381.474,258.824 382.064,260.226C382.654,261.627 383.078,263.102 383.336,264.651C383.594,266.2 383.723,267.602 383.723,268.856C383.723,270.699 383.465,272.433 382.949,274.055C382.432,275.678 381.621,277.098 380.515,278.315C379.408,279.532 377.97,280.491 376.2,281.192C374.43,281.892 372.291,282.243 369.783,282.243C366.316,282.243 363.532,281.634 361.43,280.417C359.328,279.2 357.557,277.872 356.119,276.434C354.681,274.996 353.427,273.668 352.357,272.451C351.288,271.234 350.089,270.626 348.762,270.626C348.54,270.626 347.84,270.939 346.66,271.566C345.479,272.193 344.226,273.06 342.898,274.166C341.57,275.273 340.372,276.563 339.302,278.038C338.233,279.514 337.698,281.063 337.698,282.685C337.698,284.972 338.786,286.816 340.962,288.217C343.138,289.619 345.83,290.836 349.038,291.868C352.247,292.901 355.75,293.915 359.549,294.911C363.347,295.906 366.851,297.105 370.059,298.506C373.268,299.908 375.96,301.641 378.136,303.706C380.312,305.772 381.4,308.427 381.4,311.672C381.4,314.328 380.662,317.167 379.187,320.191C377.712,323.216 375.739,326.018 373.268,328.6C370.797,331.181 367.939,333.339 364.693,335.072C361.448,336.806 358.018,337.672 354.404,337.672C351.675,337.672 349.407,337.359 347.6,336.732C345.793,336.105 344.207,335.441 342.843,334.74C341.478,334.04 340.169,333.376 338.915,332.749C337.661,332.122 336.186,331.808 334.489,331.808C332.719,331.808 331.17,332.14 329.843,332.804C328.515,333.468 327.279,334.187 326.136,334.962C324.993,335.736 323.868,336.455 322.762,337.119C321.655,337.783 320.438,338.115 319.111,338.115C317.636,338.115 316.455,337.691 315.57,336.842C314.685,335.994 313.966,334.943 313.413,333.689C312.86,332.435 312.491,331.071 312.307,329.596C312.122,328.12 312.03,326.756 312.03,325.502ZM408.174,282.464C404.044,282.464 401.978,279.993 401.978,275.051C401.978,271.953 402.716,269.335 404.191,267.196C405.666,265.057 407.584,263.287 409.944,261.885C412.305,260.484 414.941,259.396 417.855,258.622C420.768,257.847 423.7,257.275 426.651,256.907C429.601,256.538 432.404,256.317 435.059,256.243C437.714,256.169 439.927,256.132 441.697,256.132C444.058,256.132 446.695,256.187 449.608,256.298C452.521,256.409 455.509,256.648 458.57,257.017C461.631,257.386 464.599,257.976 467.476,258.787C470.353,259.599 472.934,260.687 475.221,262.051C477.507,263.416 479.333,265.149 480.697,267.251C482.062,269.353 482.744,271.916 482.744,274.941C482.744,277.596 482.191,279.514 481.084,280.694C479.978,281.874 478.466,282.464 476.548,282.464C474.557,282.464 473.008,282.003 471.901,281.081C470.795,280.159 469.744,279.163 468.748,278.094C467.753,277.024 466.683,276.029 465.54,275.107C464.397,274.185 462.792,273.724 460.727,273.724C458.293,273.724 456.302,274.535 454.753,276.158C453.204,277.78 451.987,279.846 451.102,282.353C450.216,284.861 449.59,287.572 449.221,290.485C448.852,293.399 448.668,296.146 448.668,298.728C448.668,302.194 448.907,305.126 449.387,307.523C449.866,309.921 450.493,311.949 451.268,313.608C452.042,315.268 452.853,316.651 453.702,317.757C454.55,318.864 455.361,319.896 456.136,320.855C456.91,321.814 457.537,322.791 458.016,323.787C458.496,324.783 458.736,325.981 458.736,327.383C458.736,329.522 458.164,331.237 457.021,332.528C455.877,333.818 454.458,334.814 452.761,335.515C451.065,336.215 449.276,336.695 447.395,336.953C445.514,337.211 443.836,337.34 442.361,337.34C440.886,337.34 439.208,337.23 437.327,337.008C435.446,336.787 433.658,336.308 431.961,335.57C430.265,334.832 428.827,333.8 427.646,332.472C426.466,331.145 425.876,329.411 425.876,327.272C425.876,325.871 426.134,324.691 426.651,323.732C427.167,322.773 427.794,321.833 428.531,320.911C429.269,319.989 430.08,318.993 430.966,317.923C431.851,316.854 432.662,315.508 433.4,313.885C434.137,312.262 434.764,310.252 435.28,307.855C435.797,305.458 436.055,302.489 436.055,298.949C436.055,296.367 435.87,293.601 435.502,290.651C435.133,287.701 434.506,284.972 433.621,282.464C432.736,279.956 431.5,277.872 429.914,276.213C428.329,274.553 426.319,273.724 423.885,273.724C421.819,273.724 420.215,274.185 419.072,275.107C417.929,276.029 416.878,277.024 415.919,278.094C414.96,279.163 413.927,280.159 412.821,281.081C411.715,282.003 410.166,282.464 408.174,282.464ZM511.399,296.736C511.399,292.016 510.735,288.199 509.408,285.285C508.08,282.372 506.623,279.882 505.037,277.817C503.452,275.752 501.995,273.834 500.667,272.064C499.34,270.294 498.676,268.229 498.676,265.868C498.676,263.582 499.616,261.646 501.497,260.06C503.378,258.474 505.867,257.22 508.965,256.298C512.063,255.376 515.603,254.712 519.586,254.307C523.569,253.901 527.663,253.698 531.867,253.698C536.145,253.698 540.349,253.938 544.48,254.417C548.61,254.897 552.298,255.745 555.544,256.962C558.789,258.179 561.407,259.857 563.399,261.996C565.39,264.135 566.386,266.864 566.386,270.183C566.386,272.691 565.907,274.701 564.948,276.213C563.989,277.725 562.108,278.481 559.305,278.481C557.388,278.481 555.415,278.168 553.386,277.541C551.358,276.914 549.348,276.213 547.356,275.438C545.365,274.664 543.447,273.945 541.603,273.281C539.759,272.617 538.026,272.285 536.403,272.285C534.707,272.285 533.305,272.673 532.199,273.447C531.093,274.221 530.244,275.199 529.654,276.379C529.064,277.559 528.659,278.794 528.437,280.085C528.216,281.376 528.105,282.501 528.105,283.46C528.105,285.377 528.437,286.889 529.101,287.996C529.765,289.102 530.798,289.655 532.199,289.655C532.937,289.655 533.693,289.508 534.467,289.213C535.242,288.918 536.016,288.586 536.791,288.217C537.565,287.848 538.358,287.516 539.169,287.221C539.981,286.926 540.792,286.779 541.603,286.779C542.636,286.779 543.521,287.055 544.259,287.609C544.996,288.162 545.586,288.844 546.029,289.655C546.471,290.467 546.803,291.352 547.025,292.311C547.246,293.27 547.356,294.155 547.356,294.966C547.356,295.777 547.227,296.681 546.969,297.677C546.711,298.672 546.342,299.576 545.863,300.387C545.383,301.199 544.756,301.881 543.982,302.434C543.208,302.987 542.304,303.264 541.271,303.264C540.534,303.264 539.796,303.135 539.059,302.877C538.321,302.618 537.565,302.342 536.791,302.047C536.016,301.752 535.242,301.475 534.467,301.217C533.693,300.959 532.863,300.83 531.978,300.83C530.724,300.83 529.618,301.291 528.659,302.213C527.7,303.135 527.22,304.997 527.22,307.8C527.22,310.75 527.774,313.018 528.88,314.604C529.986,316.19 531.314,317.352 532.863,318.089C534.412,318.827 536.016,319.269 537.676,319.417C539.335,319.564 540.718,319.638 541.825,319.638C544.554,319.638 546.822,319.214 548.629,318.366C550.436,317.518 551.929,316.43 553.11,315.102C554.29,313.774 555.285,312.373 556.097,310.898C556.908,309.423 557.683,308.021 558.42,306.694C559.158,305.366 559.988,304.278 560.91,303.43C561.832,302.582 562.993,302.157 564.395,302.157C566.312,302.157 567.898,302.784 569.152,304.038C570.406,305.292 571.033,307.026 571.033,309.238C571.033,313.738 570.185,317.555 568.488,320.689C566.792,323.824 564.579,326.424 561.85,328.489C559.121,330.555 556.06,332.196 552.667,333.413C549.274,334.63 545.9,335.533 542.544,336.123C539.188,336.713 535.998,337.082 532.974,337.23C529.949,337.377 527.479,337.451 525.561,337.451C523.127,337.451 520.342,337.377 517.208,337.23C514.073,337.082 511.123,336.64 508.357,335.902C505.591,335.164 503.267,334.003 501.386,332.417C499.506,330.831 498.565,328.563 498.565,325.613C498.565,323.99 498.879,322.589 499.506,321.408C500.133,320.228 500.925,319.103 501.884,318.034C502.843,316.964 503.876,315.84 504.982,314.66C506.089,313.479 507.121,312.078 508.08,310.455C509.039,308.833 509.832,306.933 510.459,304.757C511.086,302.582 511.399,299.908 511.399,296.736ZM599.688,293.528C599.688,288.807 599.024,284.824 597.697,281.579C596.369,278.333 594.912,275.512 593.326,273.115C591.741,270.718 590.284,268.56 588.956,266.643C587.629,264.725 586.965,262.734 586.965,260.668C586.965,258.308 587.887,256.722 589.731,255.911C591.575,255.1 593.898,254.694 596.701,254.694C597.733,254.694 599.467,254.749 601.901,254.86C604.335,254.97 607.156,255.173 610.365,255.468C613.573,255.763 617.058,256.151 620.82,256.63C624.582,257.109 628.325,257.736 632.05,258.511C635.774,259.285 639.389,260.207 642.892,261.277C646.396,262.346 649.475,263.619 652.13,265.094C654.786,266.569 656.925,268.247 658.547,270.128C660.17,272.009 660.981,274.129 660.981,276.49C660.981,278.85 660.262,280.712 658.824,282.077C657.386,283.441 655.781,284.585 654.011,285.506C652.241,286.428 650.637,287.332 649.198,288.217C647.76,289.102 647.041,290.209 647.041,291.536C647.041,292.716 647.631,294.284 648.811,296.238C649.991,298.193 651.467,300.369 653.237,302.766C655.007,305.163 656.925,307.671 658.99,310.289C661.055,312.908 662.973,315.489 664.743,318.034C666.513,320.579 667.988,322.957 669.169,325.17C670.349,327.383 670.939,329.264 670.939,330.813C670.939,331.993 670.607,332.989 669.943,333.8C669.279,334.611 668.394,335.275 667.288,335.791C666.181,336.308 664.891,336.676 663.415,336.898C661.94,337.119 660.391,337.23 658.769,337.23C655.081,337.23 652.094,336.695 649.807,335.625C647.52,334.556 645.695,333.136 644.33,331.366C642.966,329.596 641.933,327.586 641.233,325.336C640.532,323.086 639.905,320.8 639.352,318.477C638.799,316.153 638.172,313.867 637.471,311.617C636.77,309.367 635.738,307.357 634.373,305.587C633.009,303.817 631.183,302.397 628.896,301.328C626.61,300.258 623.586,299.723 619.824,299.723C619.308,299.723 619.05,300.166 619.05,301.051C619.05,302.305 619.437,304.038 620.211,306.251C620.986,308.464 621.853,310.787 622.811,313.221C623.77,315.655 624.637,318.034 625.411,320.357C626.186,322.681 626.573,324.58 626.573,326.055C626.573,327.825 625.965,329.374 624.748,330.702C623.531,332.03 621.982,333.118 620.101,333.966C618.22,334.814 616.136,335.459 613.85,335.902C611.563,336.345 609.35,336.566 607.211,336.566C605.589,336.566 603.616,336.418 601.292,336.123C598.969,335.828 596.756,335.312 594.654,334.574C592.552,333.837 590.763,332.841 589.288,331.587C587.813,330.333 587.075,328.711 587.075,326.719C587.075,324.875 587.739,322.976 589.067,321.021C590.395,319.067 591.833,316.835 593.382,314.328C594.931,311.82 596.369,308.906 597.697,305.587C599.024,302.268 599.688,298.248 599.688,293.528ZM622.258,274.387C620.857,274.387 619.75,274.572 618.939,274.941C618.128,275.309 617.501,275.77 617.058,276.324C616.616,276.877 616.321,277.485 616.173,278.149C616.026,278.813 615.952,279.477 615.952,280.141C615.952,281.911 616.321,283.46 617.058,284.787C617.796,286.115 618.976,286.779 620.599,286.779C621.557,286.779 622.885,286.742 624.582,286.668C626.278,286.594 627.919,286.355 629.505,285.949C631.091,285.543 632.474,284.935 633.654,284.124C634.834,283.312 635.424,282.169 635.424,280.694C635.424,279.292 634.852,278.168 633.709,277.319C632.566,276.471 631.238,275.826 629.726,275.383C628.214,274.941 626.739,274.664 625.301,274.553C623.862,274.443 622.848,274.387 622.258,274.387Z" style="fill:url(#_Linear1);"/>
            </g>
        </g>
    </g>
    <defs>
        <linearGradient id="_Linear1" x1="0" y1="0" x2="1" y2="0" gradientUnits="userSpaceOnUse" gradientTransform="matrix(659.061,0.00218185,-0.00218185,659.061,14.0591,308.507)"><stop offset="0" style="stop-color:rgb(255,56,56);stop-opacity:1"/><stop offset="0.13" style="stop-color:rgb(183,95,0);stop-opacity:1"/><stop offset="0.26" style="stop-color:rgb(255,233,63);stop-opacity:1"/><stop offset="0.39" style="stop-color:rgb(0,224,22);stop-opacity:1"/><stop offset="0.63" style="stop-color:rgb(126,220,255);stop-opacity:1"/><stop offset="0.8" style="stop-color:rgb(66,33,255);stop-opacity:1"/><stop offset="1" style="stop-color:rgb(202,128,255);stop-opacity:1"/></linearGradient>
    </defs>
</svg>
